<svg width="40" height="40" viewBox="0 0 40 40" fill="none" xmlns="http://www.w3.org/2000/svg">
  <circle cx="20" cy="20" r="20" fill="#2c3e50"/>
  <path d="M20 10C14.48 10 10 14.48 10 20C10 25.52 14.48 30 20 30C25.52 30 30 25.52 30 20C30 14.48 25.52 10 20 10ZM20 12C21.1 12 22 12.9 22 14C22 15.1 21.1 16 20 16C18.9 16 18 15.1 18 14C18 12.9 18.9 12 20 12ZM24 25.5C24 27.43 22.43 29 20.5 29H19.5C17.57 29 16 27.43 16 25.5V21.5C16 20.4 16.9 19.5 18 19.5H22C23.1 19.5 24 20.4 24 21.5V25.5ZM29 22H27C26.45 22 26 21.55 26 21C26 20.45 26.45 20 27 20H29C29.55 20 30 20.45 30 21C30 21.55 29.55 22 29 22ZM13 22H11C10.45 22 10 21.55 10 21C10 20.45 10.45 20 11 20H13C13.55 20 14 20.45 14 21C14 21.55 13.55 22 13 22ZM21 13C21 12.45 21.45 12 22 12C22.55 12 23 12.45 23 13V15C23 15.55 22.55 16 22 16C21.45 16 21 15.55 21 15V13ZM19 13C19 12.45 18.55 12 18 12C17.45 12 17 12.45 17 13V15C17 15.55 17.45 16 18 16C18.55 16 19 15.55 19 15V13Z" fill="white"/>
</svg>