<svg width="40" height="40" viewBox="0 0 40 40" fill="none" xmlns="http://www.w3.org/2000/svg">
  <circle cx="20" cy="20" r="20" fill="#3498db"/>
  <path d="M20 10C14.48 10 10 14.48 10 20C10 25.52 14.48 30 20 30C25.52 30 30 25.52 30 20C30 14.48 25.52 10 20 10ZM20 15C21.66 15 23 16.34 23 18C23 19.66 21.66 21 20 21C18.34 21 17 19.66 17 18C17 16.34 18.34 15 20 15ZM20 28C17.5 28 15.29 26.92 14 25.18C14.03 22.73 18.67 21.5 20 21.5C21.32 21.5 25.97 22.73 26 25.18C24.71 26.92 22.5 28 20 28Z" fill="white"/>
</svg>