<?xml version="1.0" encoding="UTF-8" standalone="no"?>
<!-- Created with Inkscape (http://www.inkscape.org/) -->

<svg
   width="39.687508mm"
   height="8.2786474mm"
   viewBox="0 0 39.687507 8.2786478"
   version="1.1"
   id="svg21125"
   inkscape:version="1.3.2 (091e20e, 2023-11-25, custom)"
   sodipodi:docname="diratec-logo.svg"
   xmlns:inkscape="http://www.inkscape.org/namespaces/inkscape"
   xmlns:sodipodi="http://sodipodi.sourceforge.net/DTD/sodipodi-0.dtd"
   xmlns="http://www.w3.org/2000/svg"
   xmlns:svg="http://www.w3.org/2000/svg">
  <sodipodi:namedview
     id="namedview21127"
     pagecolor="#ffffff"
     bordercolor="#666666"
     borderopacity="1.0"
     inkscape:pageshadow="2"
     inkscape:pageopacity="0.0"
     inkscape:pagecheckerboard="0"
     inkscape:document-units="mm"
     showgrid="false"
     inkscape:zoom="2.9647587"
     inkscape:cx="52.955406"
     inkscape:cy="43.342482"
     inkscape:window-width="2560"
     inkscape:window-height="1369"
     inkscape:window-x="-8"
     inkscape:window-y="-8"
     inkscape:window-maximized="1"
     inkscape:current-layer="layer1"
     inkscape:showpageshadow="2"
     inkscape:deskcolor="#d1d1d1" />
  <defs
     id="defs21122">
    <filter
       inkscape:collect="always"
       style="color-interpolation-filters:sRGB"
       id="filter1672"
       x="-0.015936675"
       y="-0.015828651"
       width="1.0318734"
       height="1.0316573">
      <feGaussianBlur
         inkscape:collect="always"
         stdDeviation="0.049368973"
         id="feGaussianBlur1674" />
    </filter>
  </defs>
  <g
     inkscape:label="Livello 1"
     inkscape:groupmode="layer"
     id="layer1"
     transform="translate(-6.3495774,-76.207215)">
    <circle
       style="fill:none;fill-opacity:1;stroke:#c1c8d0;stroke-width:0.088429;stroke-linecap:square;stroke-linejoin:round;stroke-miterlimit:4;stroke-dasharray:0.088429, 0.176858;stroke-dashoffset:0;stroke-opacity:1"
       id="path1041"
       cx="10.488825"
       cy="80.346619"
       r="4.0950289" />
    <path
       id="path7689-4-2-0-7-8-7-7-2"
       style="fill:none;fill-opacity:1;fill-rule:evenodd;stroke:#ff6600;stroke-width:0.312863;stroke-miterlimit:4;stroke-dasharray:none;stroke-dashoffset:0;stroke-opacity:1"
       d="m 10.38072,76.966636 a 3.3807298,3.3807292 0 0 1 0.07425,-8.84e-4 3.3807298,3.3807292 0 0 1 3.38073,3.380729 v 0 a 3.3807298,3.3807292 0 0 1 -3.38073,3.38073 3.3807298,3.3807292 0 0 1 -0.07425,-8.85e-4" />
    <ellipse
       style="fill:none;fill-opacity:1;stroke:#c1c8d0;stroke-width:0.0424717;stroke-linecap:square;stroke-linejoin:round;stroke-miterlimit:4;stroke-dasharray:none;stroke-dashoffset:0;stroke-opacity:1"
       id="path1041-4"
       cx="10.489538"
       cy="80.347252"
       rx="2.7255316"
       ry="2.7441323" />
    <ellipse
       style="opacity:1;mix-blend-mode:normal;fill:none;fill-opacity:1;stroke:#c1c8d0;stroke-width:0.0766696;stroke-linecap:square;stroke-linejoin:round;stroke-miterlimit:4;stroke-dasharray:none;stroke-dashoffset:0;stroke-opacity:1;filter:url(#filter1672)"
       id="path1041-4-4"
       cx="-0.44463298"
       cy="80.34774"
       rx="4.9201083"
       ry="4.9536862"
       transform="matrix(0.58952682,0,0,0.58952682,10.751661,32.980106)" />
    <circle
       style="fill:none;fill-opacity:1;fill-rule:evenodd;stroke:#0062ff;stroke-width:0.212348;stroke-miterlimit:4;stroke-dasharray:none;stroke-dashoffset:0;stroke-opacity:1"
       id="path7689-4-2-0-7-8-7-7"
       cx="10.488952"
       cy="80.346481"
       r="0.72728199" />
    <ellipse
       style="fill:none;fill-opacity:1;stroke:#0062ff;stroke-width:1.01845;stroke-linejoin:round;stroke-miterlimit:4;stroke-dasharray:none;stroke-opacity:1"
       id="path7779-4-4-6-75-5-9-4"
       cx="10.488952"
       cy="80.346481"
       rx="2.056407"
       ry="2.0700009" />
    <path
       style="fill:none;stroke:#0062ff;stroke-width:1.01845;stroke-linecap:round;stroke-linejoin:round;stroke-miterlimit:4;stroke-dasharray:none;stroke-opacity:1"
       d="m 12.545359,76.929155 c 0,3.368322 0,3.368322 0,3.368322"
       id="path11586-36-2-7-53-7-5-7" />
    <path
       style="fill:none;stroke:#0062ff;stroke-width:0.460613;stroke-linecap:round;stroke-linejoin:miter;stroke-miterlimit:4;stroke-dasharray:none;stroke-opacity:1"
       d="m 8.6381048,79.893278 c -1.2125968,0 -1.2125968,0 -1.2125968,0"
       id="path21008-6-0-3-0-2-1-4" />
    <path
       style="fill:none;stroke:#0062ff;stroke-width:0.460613;stroke-linecap:round;stroke-linejoin:miter;stroke-miterlimit:4;stroke-dasharray:none;stroke-opacity:1"
       d="m 8.6381048,80.701676 c -1.2125968,0 -1.2125968,0 -1.2125968,0"
       id="path21008-7-1-5-9-9-0-5-7" />
    <g
       id="g4468"
       transform="matrix(0.58952682,0,0,0.58952682,15.482945,22.352681)"
       style="display:inline">
      <g
         aria-label="DIRA"
         id="text1453-5-9-56-3-0"
         style="font-size:11.9211px;line-height:1.25;letter-spacing:0px;fill:#0062ff;fill-opacity:1;stroke:#0062ff;stroke-width:0.372534;stroke-opacity:1"
         transform="translate(-8.2103365,6.1577524)">
        <path
           id="path4106"
           style="letter-spacing:-0.745069px;fill:#0062ff;fill-opacity:1;stroke:#0062ff;stroke-opacity:1"
           sodipodi:type="inkscape:offset"
           inkscape:radius="0"
           inkscape:original="M 35.056641 88.238281 C 34.210243 88.238281 33.661308 88.524362 33.363281 89.275391 L 30.539062 96.429688 L 32.087891 96.429688 L 34.638672 89.955078 C 34.722122 89.76434 34.854184 89.681641 35.044922 89.681641 C 35.235659 89.681641 35.365973 89.764342 35.4375 89.955078 L 37.882812 96.429688 L 39.443359 96.429688 L 36.726562 89.275391 C 36.440455 88.524362 35.891118 88.238281 35.056641 88.238281 z M 11.310547 88.382812 C 10.857546 88.382812 10.642578 88.596028 10.642578 89.037109 L 10.642578 95.773438 C 10.642578 96.214518 10.857546 96.429688 11.310547 96.429688 L 14.146484 96.429688 C 16.506862 96.429688 17.771484 95.118199 17.771484 92.412109 C 17.771484 89.694098 16.494941 88.382813 14.146484 88.382812 L 11.310547 88.382812 z M 19.427734 88.382812 L 19.427734 96.429688 L 20.833984 96.429688 L 20.833984 88.382812 L 19.427734 88.382812 z M 22.753906 88.382812 L 22.753906 89.789062 L 27.164062 89.789062 C 27.938934 89.789062 28.285156 90.277396 28.285156 90.849609 C 28.285156 91.421822 27.962776 91.970703 27.164062 91.970703 L 24.029297 91.970703 C 23.147135 91.970703 22.765625 92.340091 22.765625 93.246094 L 22.765625 96.429688 L 24.171875 96.429688 L 24.171875 93.519531 C 24.171875 93.376478 24.243871 93.316406 24.375 93.316406 L 26.472656 93.316406 L 28.308594 96.429688 L 29.871094 96.429688 L 28 93.210938 C 29.227873 92.865225 29.703125 91.792388 29.703125 90.791016 C 29.703125 89.503537 28.929194 88.382813 27.117188 88.382812 L 22.753906 88.382812 z M 12.203125 89.789062 L 14.146484 89.789062 C 15.708148 89.789062 16.365234 90.564542 16.365234 92.400391 C 16.365234 94.248161 15.708148 95.021484 14.146484 95.021484 L 12.203125 95.021484 C 12.095835 95.021484 12.048828 94.986199 12.048828 94.878906 L 12.048828 89.931641 C 12.048828 89.824352 12.095831 89.789062 12.203125 89.789062 z "
           d="m 35.056641,88.238281 c -0.846398,0 -1.395333,0.286081 -1.69336,1.03711 l -2.824219,7.154297 h 1.548829 l 2.550781,-6.47461 c 0.08345,-0.190738 0.215512,-0.273437 0.40625,-0.273437 0.190737,0 0.321051,0.0827 0.392578,0.273437 l 2.445312,6.47461 h 1.560547 l -2.716797,-7.154297 c -0.286107,-0.751029 -0.835444,-1.03711 -1.669921,-1.03711 z m -23.746094,0.144531 c -0.453001,0 -0.667969,0.213216 -0.667969,0.654297 v 6.736329 c 0,0.44108 0.214968,0.65625 0.667969,0.65625 h 2.835937 c 2.360378,0 3.625,-1.311489 3.625,-4.017579 0,-2.718011 -1.276543,-4.029296 -3.625,-4.029297 z m 8.117187,0 v 8.046876 h 1.40625 v -8.046876 z m 3.326172,0 v 1.40625 h 4.410156 c 0.774872,0 1.121094,0.488334 1.121094,1.060547 0,0.572213 -0.32238,1.121094 -1.121094,1.121094 h -3.134765 c -0.882162,0 -1.263672,0.369388 -1.263672,1.275391 v 3.183594 h 1.40625 v -2.910157 c 0,-0.143053 0.072,-0.203125 0.203125,-0.203125 h 2.097656 l 1.835938,3.113282 h 1.5625 L 28,93.210938 c 1.227873,-0.345713 1.703125,-1.41855 1.703125,-2.419922 0,-1.287479 -0.773931,-2.408203 -2.585937,-2.408204 z m -10.550781,1.40625 h 1.943359 c 1.561664,0 2.21875,0.77548 2.21875,2.611329 0,1.84777 -0.657086,2.621093 -2.21875,2.621093 h -1.943359 c -0.10729,0 -0.154297,-0.03529 -0.154297,-0.142578 v -4.947265 c 0,-0.107289 0.047,-0.142579 0.154297,-0.142579 z" />
      </g>
      <g
         aria-label="TEC"
         id="text1453-5-9-56-3-8"
         style="font-size:11.9211px;line-height:1.25;letter-spacing:0px;stroke-width:0.372534"
         transform="translate(-8.4780649,5.1206424)">
        <path
           id="path4304"
           style="letter-spacing:-0.745069px;fill:#ff6600;stroke:#ff6600;stroke-opacity:1"
           sodipodi:type="inkscape:offset"
           inkscape:radius="0"
           inkscape:original="M 10.009766 98.556641 L 10.009766 99.962891 L 12.359375 99.962891 L 12.359375 106.60156 L 13.777344 106.60156 L 13.777344 99.962891 L 16.125 99.962891 L 16.125 98.556641 L 10.009766 98.556641 z M 19.099609 98.556641 C 17.204155 98.556641 16.40625 99.462521 16.40625 100.75 C 16.40625 101.63216 16.788034 102.2506 17.539062 102.56055 C 16.799954 102.8705 16.382812 103.49027 16.382812 104.4082 C 16.382812 105.65991 17.157077 106.60156 19.064453 106.60156 L 23.140625 106.60156 L 23.140625 105.19531 L 19.064453 105.19531 C 18.241897 105.19531 17.847656 104.81345 17.847656 104.18164 C 17.847656 103.52598 18.265538 103.20508 19.076172 103.20508 L 23.070312 103.20508 L 23.070312 101.92969 L 19.111328 101.92969 C 18.300693 101.92969 17.884766 101.63222 17.884766 100.97656 C 17.884766 100.35666 18.253211 99.962891 19.099609 99.962891 L 23.128906 99.962891 L 23.128906 98.556641 L 19.099609 98.556641 z M 27.558594 98.556641 C 25.222058 98.556641 23.921875 99.879847 23.921875 102.58594 C 23.921875 105.28011 25.210137 106.60156 27.558594 106.60156 L 30.669922 106.60156 L 30.669922 105.19531 L 27.558594 105.19531 C 25.996929 105.19531 25.328125 104.42179 25.328125 102.58594 C 25.328125 100.73817 26.008851 99.962891 27.558594 99.962891 L 30.669922 99.962891 L 30.669922 98.556641 L 27.558594 98.556641 z "
           d="m 10.009766,98.556641 v 1.40625 h 2.349609 v 6.638669 h 1.417969 V 99.962891 H 16.125 v -1.40625 z m 9.089843,0 c -1.895454,0 -2.693359,0.90588 -2.693359,2.193359 0,0.88216 0.381784,1.5006 1.132812,1.81055 -0.739108,0.30995 -1.15625,0.92972 -1.15625,1.84765 0,1.25171 0.774265,2.19336 2.681641,2.19336 h 4.076172 v -1.40625 h -4.076172 c -0.822556,0 -1.216797,-0.38186 -1.216797,-1.01367 0,-0.65566 0.417882,-0.97656 1.228516,-0.97656 h 3.99414 v -1.27539 h -3.958984 c -0.810635,0 -1.226562,-0.29747 -1.226562,-0.95313 0,-0.6199 0.368445,-1.013669 1.214843,-1.013669 h 4.029297 v -1.40625 z m 8.458985,0 c -2.336536,0 -3.636719,1.323206 -3.636719,4.029299 0,2.69417 1.288262,4.01562 3.636719,4.01562 h 3.111328 v -1.40625 h -3.111328 c -1.561665,0 -2.230469,-0.77352 -2.230469,-2.60937 0,-1.84777 0.680726,-2.623049 2.230469,-2.623049 h 3.111328 v -1.40625 z"
           transform="translate(29.45012,-9.28125)" />
      </g>
    </g>
  </g>
</svg>
