<?xml version="1.0" encoding="UTF-8" standalone="no"?>
<!-- Created with Inkscape (http://www.inkscape.org/) -->

<svg
   width="22.530607mm"
   height="26.458334mm"
   viewBox="0 0 22.530607 26.458334"
   version="1.1"
   id="svg1"
   xml:space="preserve"
   inkscape:version="1.3.2 (091e20e, 2023-11-25, custom)"
   sodipodi:docname="transizione5-logo.svg"
   xmlns:inkscape="http://www.inkscape.org/namespaces/inkscape"
   xmlns:sodipodi="http://sodipodi.sourceforge.net/DTD/sodipodi-0.dtd"
   xmlns="http://www.w3.org/2000/svg"
   xmlns:svg="http://www.w3.org/2000/svg"><sodipodi:namedview
     id="namedview1"
     pagecolor="#ffffff"
     bordercolor="#000000"
     borderopacity="0.25"
     inkscape:showpageshadow="2"
     inkscape:pageopacity="0.0"
     inkscape:pagecheckerboard="0"
     inkscape:deskcolor="#d1d1d1"
     inkscape:document-units="mm"
     inkscape:zoom="1.0449705"
     inkscape:cx="66.987537"
     inkscape:cy="-112.92185"
     inkscape:window-width="1278"
     inkscape:window-height="1360"
     inkscape:window-x="-7"
     inkscape:window-y="0"
     inkscape:window-maximized="0"
     inkscape:current-layer="layer1" /><defs
     id="defs1" /><g
     inkscape:label="Livello 1"
     inkscape:groupmode="layer"
     id="layer1"
     transform="translate(-87.377256,-178.11809)"><g
       id="g1"
       transform="matrix(0.12892461,0,0,0.12892461,85.222238,172.90213)"
       style="fill:#2e4192;fill-opacity:0.543796"><path
         style="fill:#ff6600;fill-opacity:1"
         d="m 142.40025,245.44916 c -0.3543,-0.14156 -0.80697,-0.1949 -1.00593,-0.11856 -0.19896,0.0763 -0.29527,0.0313 -0.21402,-0.10021 0.20199,-0.32683 -2.11558,-1.18404 -2.52204,-0.93284 -0.20138,0.12446 -0.2582,0.092 -0.14878,-0.0851 0.2143,-0.34674 -0.75941,-0.70042 -1.1921,-0.433 -0.18332,0.1133 -0.2368,0.0753 -0.13222,-0.0939 0.21654,-0.35037 -1.54234,-0.9731 -1.98164,-0.70159 -0.17823,0.11015 -0.24036,0.0783 -0.14576,-0.0748 0.17809,-0.28816 -1.05083,-0.96056 -1.38176,-0.75603 -0.11037,0.0682 -0.21852,-0.0196 -0.24034,-0.19508 -0.0218,-0.1755 -0.11446,-0.70429 -0.20585,-1.17508 -0.0953,-0.49079 0.0263,-1.64148 0.28501,-2.69705 0.24814,-1.01258 0.36137,-1.9966 0.25162,-2.18672 -0.10975,-0.19011 -0.097,-0.25232 0.0282,-0.13824 0.27275,0.24837 1.15022,-2.3703 1.35501,-4.04387 l 0.1457,-1.19063 -2.69141,-2.64583 c -1.48028,-1.45521 -2.74231,-2.69468 -2.80452,-2.75438 -0.2371,-0.22756 -3.26779,0.85887 -3.10966,1.11474 0.096,0.15537 0.0311,0.18372 -0.15598,0.0681 -0.41039,-0.25364 -1.68151,0.0566 -1.49151,0.36399 0.0789,0.12768 -0.11343,0.16497 -0.42743,0.0829 -0.42531,-0.11122 -0.51619,-0.0608 -0.35636,0.19785 0.14572,0.23577 0.11172,0.28359 -0.10595,0.14906 -0.37803,-0.23363 -1.68866,0.045 -1.51714,0.32252 0.0648,0.10487 -0.13867,0.21561 -0.4522,0.24607 -0.31352,0.0305 -1.00297,0.13121 -1.53211,0.22387 -0.59954,0.10499 -1.19774,0.038 -1.5875,-0.17775 -0.34399,-0.19043 -0.72358,-0.31798 -0.84354,-0.28346 -0.11996,0.0345 -0.14934,-0.0485 -0.0653,-0.1845 0.23086,-0.37353 -0.12917,-1.1103 -0.44667,-0.91407 -0.16711,0.10328 -0.19861,0.0436 -0.0791,-0.14978 0.26354,-0.42642 -0.3659,-1.91786 -0.71765,-1.70046 -0.16415,0.10145 -0.19478,0.0404 -0.0761,-0.15162 0.26354,-0.42642 -0.3659,-1.91786 -0.71765,-1.70046 -0.16415,0.10144 -0.19478,0.0404 -0.0761,-0.15163 0.24396,-0.39474 -0.35312,-1.92575 -0.67374,-1.7276 -0.12696,0.0785 -0.15244,-0.0616 -0.0566,-0.31135 0.0964,-0.25123 0.0655,-0.38683 -0.0692,-0.30359 -0.27019,0.16699 -0.3922,-0.52326 -0.40876,-2.31258 -0.0129,-1.39017 0.0716,-2.03403 0.24425,-1.86139 0.24031,0.24032 1.12348,-0.41909 0.94597,-0.7063 -0.10795,-0.17467 -0.0596,-0.21743 0.1202,-0.1063 0.3739,0.23108 2.23335,-0.99551 1.96239,-1.29449 -0.10837,-0.11957 -0.059,-0.1384 0.10977,-0.0419 0.40959,0.23435 4.19111,-2.01566 4.19111,-2.49372 0,-0.20631 0.13891,-0.3751 0.30868,-0.3751 0.62284,0 0.68823,-0.45987 0.63822,-4.48855 l -0.051,-4.10802 0.66823,-0.30447 c 0.36753,-0.16746 0.60625,-0.40476 0.53049,-0.52733 -0.0757,-0.12257 0.0666,-0.14446 0.31629,-0.0486 0.30596,0.11741 0.39224,0.0743 0.26458,-0.13229 -0.12766,-0.20656 -0.0414,-0.2497 0.26458,-0.13229 0.33242,0.12756 0.39602,0.0804 0.23745,-0.17621 -0.15,-0.2427 -0.11492,-0.28759 0.11411,-0.14604 0.38647,0.23885 1.64996,-0.362 1.44809,-0.68863 -0.0754,-0.12193 0.0673,-0.14328 0.31702,-0.0475 0.30597,0.11742 0.39225,0.0743 0.26458,-0.13229 -0.12766,-0.20656 -0.0414,-0.2497 0.26459,-0.13229 0.33241,0.12756 0.39601,0.0804 0.23744,-0.1762 -0.1443,-0.23348 -0.11437,-0.28726 0.0897,-0.16116 0.40063,0.2476 2.98499,-1.1606 2.76959,-1.50913 -0.091,-0.1472 -0.0577,-0.20369 0.0739,-0.12553 0.40399,0.23989 1.48176,-0.29161 1.27377,-0.62816 -0.11708,-0.18944 -0.0749,-0.23644 0.10982,-0.12229 0.41167,0.25442 1.4271,-0.32519 1.20351,-0.68697 -0.10437,-0.16887 -0.0602,-0.21781 0.10457,-0.11595 0.34171,0.21118 2.23291,-0.84968 2.04802,-1.14884 -0.071,-0.11484 0.078,-0.19249 0.33112,-0.17254 0.2531,0.0199 0.43508,-0.0985 0.4044,-0.26332 -0.0307,-0.16479 0.14792,-0.28385 0.39688,-0.26459 0.24895,0.0193 0.41993,-0.12266 0.37994,-0.31537 -0.04,-0.19272 0.0468,-0.27657 0.19277,-0.18633 0.35672,0.22046 1.88703,-0.93225 1.68075,-1.26603 -0.0909,-0.147 -0.0295,-0.18099 0.13894,-0.0769 0.38515,0.23804 4.58588,-2.99552 4.36203,-3.35772 -0.0913,-0.14777 -0.0357,-0.18791 0.12378,-0.0893 0.37662,0.23276 2.225,-1.38719 1.99936,-1.75227 -0.10225,-0.16545 -0.0453,-0.2003 0.14011,-0.0857 0.43808,0.27076 7.03954,-6.30724 6.76902,-6.74496 -0.12708,-0.20561 -0.0933,-0.25996 0.0908,-0.14618 0.36834,0.22764 2.50148,-2.42284 2.26191,-2.81048 -0.0994,-0.16085 -0.0487,-0.20382 0.11849,-0.10046 0.34104,0.21077 0.91982,-0.72272 0.64016,-1.0325 -0.10402,-0.11522 -0.0592,-0.13555 0.0995,-0.0452 0.35521,0.20221 1.51885,-1.31101 1.29129,-1.67921 -0.0902,-0.14601 -0.006,-0.23276 0.18632,-0.19277 0.19272,0.04 0.33464,-0.13099 0.31538,-0.37994 -0.0193,-0.24896 0.0998,-0.42755 0.26458,-0.39688 0.16479,0.0307 0.28328,-0.15131 0.26333,-0.4044 -0.02,-0.2531 0.0626,-0.39904 0.18353,-0.32433 0.3222,0.19913 1.6478,-2.18696 1.41987,-2.55576 -0.13061,-0.21133 -0.0796,-0.24285 0.15675,-0.0968 0.25657,0.15857 0.30376,0.095 0.1762,-0.23744 -0.0958,-0.24971 -0.069,-0.38899 0.0596,-0.30951 0.1286,0.0795 0.30499,-0.0409 0.39197,-0.26761 0.0884,-0.23049 0.2936,-0.32841 0.46548,-0.22218 0.18822,0.11632 0.23603,0.0746 0.12335,-0.10776 -0.10119,-0.16373 6.7e-4,-0.65478 0.22637,-1.09122 0.22569,-0.43644 0.37938,-0.94137 0.34154,-1.12207 -0.0488,-0.23279 0.27822,-0.30358 1.12181,-0.24291 0.65485,0.0471 1.44715,0.10205 1.76068,0.12212 0.31352,0.0201 0.52015,0.1172 0.45917,0.21586 -0.16592,0.26847 0.90316,0.54544 1.25825,0.32598 0.17106,-0.10572 0.23715,-0.0759 0.14875,0.0672 -0.20311,0.32863 1.55982,0.97881 1.96874,0.72608 0.17738,-0.10962 0.23597,-0.0748 0.13878,0.0825 -0.0984,0.15924 0.75349,0.62009 2.0527,1.11045 1.22152,0.46103 2.35539,1.00024 2.51972,1.19824 0.36428,0.43893 0.85287,2.05916 0.56782,1.88299 -0.11213,-0.0693 -0.8781,1.9738 -1.70215,4.54023 -1.3714,4.27112 -1.46554,4.71617 -1.1118,5.25605 0.51644,0.78819 3.33592,3.43108 3.58529,3.36075 0.10851,-0.0306 0.41983,0.20752 0.69182,0.52916 l 0.49452,0.58481 -0.66145,-0.52503 c -0.55242,-0.43847 -0.53335,-0.38395 0.11564,0.33073 0.68019,0.74904 2.01557,1.25688 1.6194,0.61585 -0.0816,-0.13195 0.10863,-0.17272 0.42263,-0.0906 0.42532,0.11122 0.5162,0.0608 0.35636,-0.19785 -0.14372,-0.23254 -0.11155,-0.28348 0.0974,-0.15432 0.44607,0.27569 5.37308,-1.40836 5.15462,-1.76184 -0.10448,-0.16906 -0.0498,-0.20574 0.1357,-0.0911 0.35276,0.21802 2.2157,-0.32287 2.04778,-0.59456 -0.0602,-0.0974 0.3455,-0.17712 0.90156,-0.17712 0.55606,0 0.96858,0.0424 0.91671,0.0943 -0.0519,0.0519 0.12642,0.33124 0.3962,0.62081 0.26978,0.28958 0.75279,1.22783 1.07335,2.085 0.3387,0.90567 0.69782,1.48742 0.85735,1.38882 0.15979,-0.0987 0.19501,-0.041 0.0843,0.13817 -0.26742,0.43269 0.0863,1.4064 0.433,1.1921 0.17598,-0.10876 0.20962,-0.0528 0.0873,0.14523 -0.21553,0.34873 0.86443,3.52379 1.14053,3.35315 0.17093,-0.10565 0.27217,0.67488 0.27172,2.09491 -3.6e-4,1.16195 -0.0422,1.43115 -0.21448,1.37988 -0.35316,-0.10511 -2.36851,1.24048 -2.21936,1.4818 0.0893,0.14453 0.0333,0.18301 -0.12444,0.0855 -0.50661,-0.3131 -5.17325,2.63889 -4.90753,3.10437 0.0937,0.16414 0.0761,0.21333 -0.0391,0.10931 -0.11523,-0.10402 -0.43476,-0.0686 -0.71008,0.0788 -0.4657,0.24924 -0.49553,0.58403 -0.42823,4.80689 l 0.0723,4.53899 1.05833,0.73218 c 0.58209,0.40269 1.21335,0.67755 1.40281,0.61079 0.18946,-0.0668 0.27873,-0.015 0.19838,0.11499 -0.19071,0.30857 2.16103,1.68676 2.51012,1.47101 0.14709,-0.0909 0.23471,-0.0312 0.19473,0.13268 -0.04,0.16388 0.56937,0.64217 1.35413,1.06286 0.78476,0.42069 1.55867,0.89671 1.71979,1.05783 0.3108,0.31078 0.43122,2.68268 0.12665,2.49445 -0.26639,-0.16464 -0.7824,1.48859 -0.57348,1.83735 0.12103,0.20205 0.052,0.1969 -0.21106,-0.0157 -0.41086,-0.33216 -0.41351,-0.32597 -0.57523,1.34914 -0.0338,0.3499 -0.1349,0.59078 -0.22471,0.53527 -0.0898,-0.0555 -0.60258,0.95894 -1.13951,2.25431 -0.53692,1.29537 -1.14674,2.49673 -1.35515,2.6697 -0.20841,0.17296 -0.33101,0.39201 -0.27245,0.48677 0.1735,0.28072 -2.0815,0.12205 -3.11559,-0.21923 -0.52532,-0.17337 -1.09491,-0.22883 -1.26576,-0.12324 -0.20762,0.12832 -0.23948,0.0769 -0.0961,-0.15516 0.15984,-0.25861 0.069,-0.30907 -0.35636,-0.19784 -0.314,0.0821 -0.51838,0.0643 -0.45418,-0.0396 0.0642,-0.10387 -1.0626,-0.57542 -2.504,-1.04787 -1.92127,-0.62975 -2.74675,-0.78981 -3.09292,-0.59972 -0.25971,0.14261 -1.127,0.95268 -1.92732,1.80015 l -1.45511,1.54087 1.7197,-1.5875 1.7197,-1.5875 -1.56685,1.64114 c -0.86176,0.90263 -1.64952,1.59005 -1.75058,1.5276 -0.2423,-0.14976 -1.08803,0.79143 -0.91648,1.01992 0.0731,0.0973 0.0532,0.11717 -0.0441,0.0441 -0.29718,-0.22313 -1.14595,0.71108 -1.14595,1.26131 0,0.28449 0.41672,2.05531 0.92604,3.93514 0.50932,1.87983 0.92604,3.48111 0.92604,3.55839 0,0.0773 0.0893,0.0853 0.19844,0.0177 0.10914,-0.0675 0.18306,0.468 0.16426,1.19007 -0.0245,0.94233 -0.19323,1.48216 -0.59773,1.91274 -0.30996,0.32993 -0.47317,0.69943 -0.3627,0.8211 0.11047,0.12168 0.0478,0.13298 -0.13925,0.0251 -0.43852,-0.25287 -3.2606,0.90891 -3.04707,1.25441 0.0909,0.1471 0.0269,0.1783 -0.14618,0.0713 -0.43269,-0.26742 -1.4064,0.0863 -1.1921,0.433 0.10595,0.17144 0.0534,0.21005 -0.13082,0.0962 -0.40177,-0.24831 -1.41361,0.0746 -1.21924,0.38909 0.0824,0.13338 -0.021,0.17693 -0.22985,0.0968 -0.20886,-0.0802 -0.84012,0.0578 -1.40281,0.3065 -1.14821,0.50754 -2.99254,0.66469 -2.92152,0.24894 0.0255,-0.14926 -0.11131,-0.23866 -0.30403,-0.19867 -0.19272,0.04 -0.2805,-0.0404 -0.19508,-0.17861 0.22676,-0.3669 -0.41057,-1.62657 -0.72472,-1.43242 -0.15125,0.0935 -0.18522,0.0329 -0.0784,-0.13986 0.23352,-0.37784 -1.14614,-3.52402 -1.46023,-3.3299 -0.12528,0.0774 -0.14938,-0.0635 -0.0536,-0.31324 0.0964,-0.25121 0.0655,-0.38688 -0.0692,-0.30372 -0.13387,0.0827 -0.26071,-0.13812 -0.28186,-0.49063 -0.0212,-0.35252 -0.35464,-1.05547 -0.74107,-1.56211 l -0.70261,-0.92117 h -3.8169 c -3.76116,0 -3.82311,0.009 -4.24267,0.64982 -0.23418,0.3574 -0.33759,0.79252 -0.2298,0.96692 0.11955,0.19344 0.084,0.24787 -0.0913,0.13957 -0.17653,-0.1091 -0.98123,1.19557 -2.08759,3.38463 -2.03324,4.02299 -2.48391,4.45012 -4.03965,3.82857 z m 15.00567,-23.6508 c 0.7683,-0.23382 1.32766,-0.53716 1.24303,-0.67409 -0.0846,-0.13694 0.0147,-0.18428 0.22077,-0.10521 0.44614,0.1712 2.61868,-0.90443 2.43313,-1.20465 -0.0708,-0.11459 0.0783,-0.19203 0.33141,-0.17208 0.25451,0.0201 0.42768,-0.12032 0.38747,-0.31412 -0.04,-0.19272 0.0545,-0.27176 0.21003,-0.17566 0.37069,0.2291 1.097,-0.37981 0.87721,-0.73543 -0.0936,-0.15151 -0.0449,-0.19799 0.10837,-0.10328 0.29975,0.18525 1.52293,-0.93861 1.52293,-1.39928 0,-0.15326 0.071,-0.2489 0.15777,-0.21252 0.3171,0.13295 1.05304,-0.69022 0.92212,-1.0314 -0.0741,-0.19322 0.01,-0.32297 0.1864,-0.28834 0.17666,0.0346 0.30488,-0.1441 0.28493,-0.3972 -0.02,-0.2531 0.0716,-0.39347 0.20355,-0.31195 0.36751,0.22713 1.92678,-3.33272 1.93878,-4.42626 0.006,-0.53161 0.0903,-0.9178 0.18773,-0.85821 0.36688,0.22443 0.55246,-3.50823 0.26601,-5.35071 -0.36326,-2.33659 -1.30214,-4.93723 -1.69482,-4.69454 -0.16229,0.1003 -0.2093,0.0534 -0.10904,-0.10884 0.24138,-0.39056 -0.87147,-2.21944 -1.21959,-2.00429 -0.16908,0.1045 -0.20092,0.0455 -0.0806,-0.1492 0.25207,-0.40785 -2.87604,-3.58888 -3.28228,-3.33781 -0.15973,0.0987 -0.25532,0.022 -0.21495,-0.17262 0.0413,-0.19887 -0.13516,-0.33323 -0.40795,-0.31071 -0.26437,0.0218 -0.41395,-0.027 -0.33242,-0.10856 0.24781,-0.24781 -0.88561,-0.90144 -1.21264,-0.69932 -0.20277,0.12531 -0.23241,0.071 -0.0884,-0.16193 0.15857,-0.25657 0.095,-0.30376 -0.23744,-0.1762 -0.25026,0.096 -0.38676,0.0654 -0.30415,-0.0683 0.19437,-0.3145 -0.81746,-0.6374 -1.21924,-0.38909 -0.1887,0.11662 -0.23662,0.075 -0.12383,-0.10746 0.22272,-0.36038 -0.98461,-0.71778 -1.451,-0.42954 -0.19045,0.11771 -0.25197,0.0872 -0.15162,-0.0752 0.23309,-0.37715 -1.08239,-0.60283 -3.49363,-0.59935 -2.52699,0.004 -4.04506,0.24224 -3.82339,0.6009 0.0977,0.15814 0.0378,0.19126 -0.14349,0.0792 -0.4424,-0.27342 -2.99169,0.61543 -2.77424,0.96727 0.0984,0.15925 0.0518,0.20724 -0.10636,0.10949 -0.39924,-0.24674 -1.15445,0.092 -0.9484,0.42546 0.0983,0.15908 0.0451,0.19953 -0.12454,0.0947 -0.3893,-0.2406 -2.47262,1.14346 -2.25389,1.49738 0.0956,0.15468 0.0403,0.19377 -0.12734,0.0901 -0.37415,-0.23123 -2.48776,1.91274 -2.25574,2.28816 0.0939,0.15188 0.0467,0.19952 -0.10482,0.10588 -0.37386,-0.23106 -0.9589,0.51562 -0.71421,0.91154 0.12078,0.19543 0.0839,0.24778 -0.0962,0.13647 -0.36178,-0.22359 -0.9414,0.79184 -0.68697,1.2035 0.12216,0.19766 0.0659,0.22612 -0.16502,0.0834 -0.25657,-0.15856 -0.30376,-0.095 -0.1762,0.23745 0.11741,0.30597 0.0743,0.39225 -0.1323,0.26458 -0.20656,-0.12766 -0.2497,-0.0414 -0.13229,0.26459 0.096,0.25025 0.0654,0.38675 -0.0683,0.30414 -0.31449,-0.19437 -0.6374,0.81746 -0.38909,1.21924 0.11084,0.17934 0.0755,0.23692 -0.0846,0.13794 -0.71595,-0.44248 -1.3295,4.62528 -0.86436,7.13936 0.41564,2.24651 1.28123,4.6469 1.6038,4.44754 0.13275,-0.082 0.16297,0.0551 0.0671,0.30485 -0.11741,0.30597 -0.0743,0.39225 0.13229,0.26458 0.20656,-0.12766 0.2497,-0.0414 0.13229,0.26458 -0.10964,0.28572 -0.0705,0.38995 0.10545,0.28118 0.15905,-0.0983 0.26403,0.0256 0.2434,0.28732 -0.0199,0.2531 0.0985,0.43508 0.26333,0.40441 0.16478,-0.0307 0.28384,0.14792 0.26458,0.39687 -0.0193,0.24896 0.12266,0.41993 0.31538,0.37995 0.19272,-0.04 0.28122,0.0392 0.19667,0.17603 -0.0846,0.1368 0.1414,0.59948 0.50212,1.02817 0.36072,0.42869 0.58353,0.85175 0.49514,0.94015 -0.0884,0.0884 0.0967,0.11114 0.41132,0.0506 0.31461,-0.0606 0.50818,-0.007 0.43015,0.1194 -0.18406,0.29781 1.17347,1.36929 1.48832,1.17471 0.13202,-0.0816 0.20732,0.009 0.16733,0.20204 -0.0402,0.1938 0.13297,0.33418 0.38748,0.31412 0.25309,-0.0199 0.40541,0.0523 0.33849,0.16062 -0.29082,0.47055 2.60647,1.66182 6.0805,2.5001 1.0058,0.2427 5.29658,-0.0811 6.68857,-0.50469 z m 7.04462,-26.13069 -0.50402,-0.59531 0.59531,0.50403 c 0.55944,0.47366 0.71576,0.68659 0.50403,0.68659 -0.0502,0 -0.3181,-0.26789 -0.59532,-0.59531 z m -50.35709,22.1368 c 0.0127,-0.30822 0.0754,-0.37091 0.15985,-0.15985 0.0764,0.191 0.067,0.4192 -0.0209,0.50712 -0.0879,0.0879 -0.15045,-0.0683 -0.13896,-0.34727 z m -24.676748,-12.7264 c 0.190996,-0.0764 0.419199,-0.067 0.507118,0.0209 0.08792,0.0879 -0.06835,0.15046 -0.347266,0.13897 -0.308224,-0.0127 -0.370919,-0.0754 -0.159852,-0.15986 z m 57.993358,-26.1129 c 0,-0.0549 0.20836,-0.2633 0.46302,-0.46302 0.41964,-0.32911 0.429,-0.31975 0.0999,0.0999 -0.34564,0.44073 -0.56291,0.58088 -0.56291,0.36312 z M 72.483369,155.60099 c 0.190996,-0.0764 0.419199,-0.067 0.507118,0.0209 0.08792,0.0879 -0.06835,0.15045 -0.347265,0.13897 -0.308225,-0.0127 -0.37092,-0.0754 -0.159853,-0.15986 z M 30.506007,135.40882 c 0,-0.3638 0.06005,-0.51263 0.133452,-0.33073 0.0734,0.1819 0.0734,0.47956 0,0.66146 -0.0734,0.1819 -0.133452,0.0331 -0.133452,-0.33073 z m 0.06103,-4.36563 c 4.63e-4,-1.89177 0.04261,-2.63096 0.09365,-1.64264 0.05104,0.98832 0.05067,2.53613 -8.42e-4,3.43959 -0.05151,0.90345 -0.09327,0.0948 -0.09281,-1.79695 z m 0.451221,-2.97656 c 0.01367,-3.3106 0.10355,-7.13775 0.199732,-8.50478 0.108105,-1.53649 0.07336,-2.62045 -0.091,-2.8389 -0.494966,-0.65787 -2.063002,-1.67048 -2.330622,-1.50508 -0.146356,0.0904 -0.184784,0.033 -0.08545,-0.12773 0.160416,-0.25955 -1.188922,-1.50308 -1.642289,-1.5135 -0.358114,-0.008 -0.842328,-0.43591 -0.719161,-0.6352 0.145344,-0.23517 -1.276306,-1.67471 -1.615194,-1.63551 -0.122741,0.0142 -0.223166,-0.0831 -0.223166,-0.21631 0,-0.38907 -2.591829,-3.70948 -2.796699,-3.58286 -0.102445,0.0633 -0.169941,-0.092 -0.14999,-0.34506 0.02006,-0.25451 -0.120328,-0.42768 -0.314123,-0.38747 -0.192717,0.04 -0.275117,-0.0491 -0.183109,-0.19797 0.179577,-0.29057 -0.483803,-1.41506 -0.704561,-1.1943 -0.07275,0.0727 -0.111272,-0.22068 -0.08561,-0.65206 0.02566,-0.43139 -0.03801,-0.732 -0.141504,-0.66804 -0.259158,0.16017 -1.66495,-3.04919 -2.320606,-5.297831 -1.51307,-5.189244 -1.464078,-10.631831 0.143826,-15.977664 0.37694,-1.253222 0.69574,-2.535106 0.708444,-2.848632 0.0127,-0.313526 0.103823,-0.520156 0.202487,-0.459179 0.27229,0.168285 0.543218,-0.903534 0.324437,-1.28351 -0.105504,-0.183237 -0.0883,-0.238774 0.03823,-0.123444 0.298577,0.272135 2.55969,-4.258511 2.327636,-4.663941 -0.09703,-0.169516 -0.0787,-0.219672 0.04072,-0.111457 0.283976,0.257333 1.007098,-0.777601 0.789417,-1.129816 -0.09201,-0.148871 -0.0476,-0.237959 0.09869,-0.197973 0.378493,0.103458 2.732911,-3.470204 2.516718,-3.820011 -0.104782,-0.169541 -0.05786,-0.215048 0.112903,-0.109508 0.341042,0.210776 0.919817,-0.722715 0.640159,-1.032494 -0.104021,-0.115225 -0.04627,-0.127545 0.128326,-0.02738 0.363239,0.208388 0.955659,-0.70946 0.665424,-1.030956 -0.104021,-0.115224 -0.04627,-0.127544 0.128326,-0.02738 0.314732,0.18056 1.048126,-0.806034 0.922826,-1.241429 -0.03452,-0.119957 0.04971,-0.148588 0.187186,-0.06362 0.331592,0.204935 1.391305,-1.158244 1.173881,-1.510042 -0.09326,-0.150901 -0.04802,-0.199246 0.100536,-0.107432 0.329927,0.203906 1.144275,-0.651206 1.255872,-1.318737 0.04471,-0.267425 0.207747,-0.458646 0.362309,-0.424935 0.292783,0.06386 1.49068,-1.451649 1.512384,-1.913375 0.0068,-0.145521 0.148179,-0.237376 0.314085,-0.204123 0.393808,0.07893 3.275737,-3.105867 3.086936,-3.411352 -0.07957,-0.128752 0.013,-0.201379 0.205718,-0.161393 0.192717,0.03999 0.31768,-0.08498 0.277694,-0.277694 -0.03999,-0.192718 0.02668,-0.288974 0.14815,-0.213902 0.275356,0.170179 11.566217,-11.101884 11.566217,-11.54696 0,-0.178287 0.145103,-0.324159 0.322451,-0.324159 0.177348,0 1.047371,-0.638101 1.933385,-1.418003 0.886014,-0.779902 1.643008,-1.375214 1.682209,-1.322917 0.0392,0.0523 0.646438,1.132326 1.349415,2.400062 0.702978,1.267736 1.377095,2.243818 1.498039,2.16907 0.120944,-0.07475 0.14841,0.05039 0.06104,0.278082 -0.08737,0.227693 -0.03843,0.561298 0.108759,0.741346 0.147191,0.180048 0.645294,1.073254 1.106895,1.984902 0.4616,0.911649 0.94844,1.590074 1.081866,1.507613 0.133767,-0.08267 0.164437,0.05374 0.06837,0.30409 -0.117411,0.305969 -0.07427,0.392247 0.132291,0.264583 0.200798,-0.1241 0.251724,-0.04665 0.147655,0.224549 -0.08737,0.227693 -0.01623,0.585849 0.1581,0.795902 0.174329,0.210054 0.228784,0.52459 0.121012,0.698969 -0.123962,0.200574 -0.08373,0.247697 0.109513,0.128267 0.168005,-0.103833 0.305464,-0.05567 0.305464,0.107026 0,0.162698 0.137459,0.210859 0.305464,0.107027 0.180012,-0.111254 0.233991,-0.07314 0.131433,0.0928 -0.228738,0.370105 0.08076,1.161432 0.381547,0.975537 0.128605,-0.07948 0.155427,0.0598 0.0596,0.309506 -0.12756,0.332418 -0.08037,0.396014 0.176203,0.237445 0.244392,-0.151042 0.287665,-0.115026 0.143012,0.119029 -0.263399,0.426187 1.173546,3.488005 1.532767,3.265995 0.151608,-0.0937 0.17838,-0.02648 0.06349,0.159417 -0.263541,0.426418 0.365894,1.917856 0.717649,1.700459 0.164145,-0.101447 0.194781,-0.0404 0.0761,0.151624 -0.243961,0.394737 0.353114,1.925755 0.673738,1.727598 0.126965,-0.07847 0.171283,0.01255 0.09848,0.202262 -0.186917,0.487099 2.107421,6.881387 2.380143,6.633425 0.123403,-0.1122 0.136928,-0.05227 0.03005,0.133185 -0.254819,0.442174 0.08216,1.959888 0.39256,1.768049 0.132012,-0.08159 0.170977,0.03159 0.08659,0.251502 -0.08439,0.219914 0.09063,1.506019 0.388922,2.858012 0.942026,4.26963 1.185178,6.560975 1.20576,11.362514 0.01101,2.569057 -0.04743,4.629359 -0.129872,4.578449 -0.236761,-0.146206 -1.081748,4.625326 -0.877594,4.955655 0.101821,0.164749 0.06504,0.223403 -0.0828,0.132033 -0.344876,-0.213145 -1.004374,1.774445 -0.733956,2.21199 0.129089,0.208871 0.09909,0.267458 -0.0802,0.156648 -0.346742,-0.214298 -0.700419,0.759411 -0.433002,1.1921 0.105683,0.170998 0.07588,0.237148 -0.06704,0.148817 -0.33524,-0.207189 -1.742529,2.65986 -1.507149,3.0705 0.09901,0.17272 0.08231,0.22551 -0.03711,0.11729 -0.300707,-0.27249 -1.000595,0.78812 -0.768203,1.16414 0.109646,0.17741 0.07282,0.23351 -0.08802,0.1341 -0.356531,-0.22035 -1.208598,1.06784 -0.965979,1.46041 0.104739,0.16947 0.06627,0.22513 -0.08919,0.12904 -0.345232,-0.21336 -2.235743,2.17981 -2.01022,2.54471 0.0918,0.14854 0.04832,0.19678 -0.09663,0.1072 -0.144947,-0.0896 -0.658459,0.24457 -1.141137,0.74257 -0.482679,0.498 -0.996191,0.83216 -1.141138,0.74258 -0.144947,-0.0896 -0.189846,-0.0436 -0.09978,0.1021 0.09007,0.14573 -0.184956,0.59907 -0.611169,1.00741 -0.426214,0.40833 -0.701241,0.86167 -0.61117,1.00741 0.09007,0.14573 0.04167,0.18952 -0.107549,0.0973 -0.31953,-0.19748 -1.563484,0.82046 -1.457538,1.19272 0.03999,0.1405 -0.03154,0.19102 -0.158949,0.11228 -0.303847,-0.18779 -2.051919,1.12005 -1.957718,1.46469 0.03999,0.14629 -0.04514,0.19315 -0.18917,0.10413 -0.365674,-0.22599 -2.4264,1.18393 -2.219561,1.5186 0.09591,0.15519 0.04025,0.19371 -0.128861,0.0892 -0.418043,-0.25836 -1.961086,0.58427 -1.736213,0.94813 0.106419,0.17218 0.06206,0.22017 -0.10696,0.11571 -0.385521,-0.23826 -3.248339,1.18005 -3.045231,1.50869 0.08782,0.1421 0.02243,0.17288 -0.14607,0.0687 -0.413179,-0.25536 -4.023868,0.92865 -3.823017,1.25363 0.09433,0.15263 0.01972,0.17154 -0.182833,0.0464 -0.27189,-0.16804 -0.311266,-1.60318 -0.191678,-6.9862 0.08278,-3.72609 0.205748,-7.01283 0.273266,-7.30387 0.06752,-0.29105 0.207638,-1.36261 0.311377,-2.38125 0.313155,-3.074963 1.675192,-10.317613 2.804693,-14.913995 0.585311,-2.381862 0.99868,-4.501405 0.918598,-4.710096 -0.08008,-0.208691 -0.04551,-0.317579 0.07682,-0.241972 0.122334,0.07561 0.650966,-1.436257 1.174738,-3.359696 1.282593,-4.710039 1.387559,-5.369299 0.885564,-5.561933 -0.468466,-0.179767 -1.608229,1.535281 -1.324927,1.993672 0.09952,0.161033 0.0534,0.209237 -0.105964,0.110744 -0.363143,-0.224434 -3.335122,5.546325 -3.13072,6.078989 0.08255,0.215128 0.04097,0.323698 -0.09241,0.241266 -0.314498,-0.19437 -0.637401,0.817464 -0.389092,1.219238 0.111102,0.179765 0.0755,0.23691 -0.08558,0.137359 -0.354158,-0.218882 -1.511664,2.59377 -1.244997,3.025247 0.116963,0.189249 0.08697,0.251661 -0.07333,0.152591 -0.159147,-0.09836 -0.610303,0.786805 -1.091714,2.141932 -0.941356,2.649831 -2.687558,8.64397 -2.687558,9.225507 0,0.215232 -0.0893,0.336142 -0.198438,0.268689 -0.109141,-0.06745 -0.203726,0.193411 -0.210189,0.579698 -0.0065,0.386286 -0.273165,2.19062 -0.592671,4.00963 -1.402514,7.98479 -1.457414,15.92191 -0.165624,23.94479 0.385577,2.39469 1.228566,6.42809 1.589832,7.60677 0.128949,0.42072 -0.113551,0.46302 -2.654039,0.46302 H 30.993388 Z M 34.18929,117.5274 c 0.0127,-0.30823 0.07539,-0.37092 0.159853,-0.15986 0.07643,0.191 0.06703,0.4192 -0.02089,0.50712 -0.08792,0.0879 -0.150453,-0.0684 -0.138965,-0.34726 z m 5.067579,-1.96233 c 0,-0.50932 0.05445,-0.71768 0.121,-0.46302 0.06655,0.25466 0.06655,0.67138 0,0.92604 -0.06655,0.25466 -0.121,0.0463 -0.121,-0.46302 z m -0.01961,-1.85208 c 0,-0.36381 0.06005,-0.51263 0.133452,-0.33073 0.0734,0.1819 0.0734,0.47955 0,0.66146 -0.0734,0.1819 -0.133452,0.0331 -0.133452,-0.33073 z m 0.02495,-1.71979 c 0.0029,-0.58209 0.05712,-0.78906 0.120406,-0.45994 0.06329,0.32912 0.06088,0.80537 -0.0053,1.05833 -0.06622,0.25297 -0.118003,-0.0163 -0.115066,-0.59839 z m -5.072919,-0.55122 c 0.0127,-0.30822 0.07539,-0.37092 0.159853,-0.15985 0.07643,0.19099 0.06703,0.4192 -0.02089,0.50712 -0.08792,0.0879 -0.150453,-0.0684 -0.138965,-0.34727 z m 91.06555,-14.058436 c 0.40219,-0.06082 0.9975,-0.05919 1.32292,0.0036 0.32542,0.0628 -0.004,0.11256 -0.73124,0.110574 -0.72761,-0.002 -0.99386,-0.05337 -0.59168,-0.114186 z M 66.997617,86.041981 c 0.0127,-0.308224 0.07539,-0.370919 0.159852,-0.159852 0.07643,0.190996 0.06703,0.419199 -0.02089,0.507118 -0.08792,0.08792 -0.150452,-0.06835 -0.138964,-0.347266 z M 104.21683,73.585677 c 0.1819,-0.0734 0.47956,-0.0734 0.66146,0 0.1819,0.0734 0.0331,0.133452 -0.33073,0.133452 -0.3638,0 -0.51263,-0.06005 -0.33073,-0.133452 z"
         id="path4" /><path
         style="fill:#0062ff;fill-opacity:1"
         d="m 82.322579,204.62867 c -1e-5,-0.12831 -0.476268,-0.1694 -1.058351,-0.0913 -0.611467,0.082 -1.058333,0.0325 -1.058333,-0.11739 0,-0.14264 -0.327422,-0.23329 -0.727604,-0.20144 -0.400183,0.0318 -0.930262,-0.0293 -1.177955,-0.1358 -0.247693,-0.10653 -0.575115,-0.11659 -0.727604,-0.0223 -0.15249,0.0942 -0.277254,0.0314 -0.277254,-0.13969 0,-0.18911 -0.259302,-0.26147 -0.661458,-0.1846 -0.363802,0.0695 -0.661458,0.01 -0.661458,-0.1323 0,-0.14232 -0.232416,-0.19798 -0.516481,-0.12369 -0.284064,0.0743 -0.557238,0.0128 -0.607052,-0.13666 -0.04981,-0.14944 -0.471971,-0.28563 -0.938125,-0.30264 -0.466153,-0.017 -0.847824,-0.11648 -0.848155,-0.22106 -3.32e-4,-0.10457 -0.167154,-0.12622 -0.370716,-0.0481 -0.203562,0.0781 -0.449914,0.0129 -0.547449,-0.14492 -0.09753,-0.15781 -0.288172,-0.21843 -0.423638,-0.13471 -0.135465,0.0837 -0.246301,0.0134 -0.246301,-0.15628 0,-0.16968 -0.178593,-0.23998 -0.396875,-0.15621 -0.218281,0.0838 -0.396875,0.0529 -0.396875,-0.0685 0,-0.12145 -0.74414,-0.48929 -1.653645,-0.81742 -0.909506,-0.32812 -1.797259,-0.71151 -1.972785,-0.85198 -0.175527,-0.14046 -0.443417,-0.17858 -0.595313,-0.0847 -0.151895,0.0939 -0.276173,0.0376 -0.276173,-0.12513 0,-0.16269 -0.119063,-0.22223 -0.264583,-0.13229 -0.145521,0.0899 -0.264584,0.0304 -0.264584,-0.13229 0,-0.1627 -0.106586,-0.22994 -0.236859,-0.14943 -0.130272,0.0805 -0.30987,-0.0439 -0.399105,-0.27642 -0.09545,-0.24873 -0.330383,-0.35828 -0.570633,-0.26609 -0.224612,0.0862 -0.340942,0.0476 -0.258511,-0.0858 0.144287,-0.23346 -0.839828,-0.70514 -1.246871,-0.59761 -0.10914,0.0288 -0.198437,-0.0865 -0.198437,-0.25626 0,-0.16977 -0.06945,-0.23923 -0.15434,-0.15434 -0.08489,0.0849 -0.386887,-0.0782 -0.671109,-0.36243 -0.284223,-0.28422 -0.619013,-0.45358 -0.743977,-0.37634 -0.124965,0.0772 -0.298375,-0.045 -0.385356,-0.27171 -0.08698,-0.22666 -0.265575,-0.34573 -0.396875,-0.26458 -0.1313,0.0812 -0.309894,-0.0379 -0.396875,-0.26458 -0.08698,-0.22667 -0.265575,-0.34573 -0.396875,-0.26459 -0.1313,0.0812 -0.313537,-0.0474 -0.404972,-0.28568 -0.09143,-0.23827 -0.237753,-0.36171 -0.325153,-0.27431 -0.0874,0.0874 -0.378293,-0.10392 -0.646428,-0.42515 -0.268135,-0.32124 -0.491479,-0.48158 -0.496321,-0.35632 -0.0048,0.12527 -0.242966,-0.0533 -0.529166,-0.39687 -0.286201,-0.34354 -0.524326,-0.51927 -0.529167,-0.39051 -0.0048,0.12877 -0.253774,-0.0773 -0.553183,-0.45795 -0.29941,-0.38063 -0.626832,-0.66715 -0.727605,-0.63669 -0.100772,0.0305 -0.825642,-0.59691 -1.610821,-1.39414 -0.785179,-0.79722 -1.263642,-1.21138 -1.063252,-0.92034 0.200389,0.29105 -0.07138,0.11703 -0.603942,-0.3867 -0.532558,-0.50373 -0.898901,-1.02814 -0.814096,-1.16536 0.0848,-0.13722 0.03022,-0.17287 -0.121294,-0.0792 -0.33604,0.20769 -0.938792,-0.45529 -0.663876,-0.7302 0.107878,-0.10788 0.01755,-0.15646 -0.200733,-0.10795 -0.218281,0.0485 -0.37029,-0.0511 -0.337797,-0.22133 0.03249,-0.17024 -0.384226,-0.69985 -0.926042,-1.1769 -0.541816,-0.47706 -0.957636,-0.95601 -0.924045,-1.06433 0.03359,-0.10832 -0.230262,-0.42611 -0.58634,-0.7062 -0.356078,-0.28009 -0.58159,-0.57508 -0.501139,-0.65553 0.08045,-0.0804 -0.160689,-0.34741 -0.535867,-0.59323 -0.375179,-0.24583 -0.624089,-0.54089 -0.553133,-0.6557 0.07095,-0.11481 -0.212058,-0.57386 -0.628918,-1.02011 -0.416861,-0.44625 -0.71056,-0.85873 -0.652665,-0.91663 0.0579,-0.0579 -0.249146,-0.48466 -0.682312,-0.94836 -0.433167,-0.46371 -0.764091,-0.89291 -0.735388,-0.95378 0.0287,-0.0609 -0.14639,-0.3426 -0.389097,-0.62606 -0.242707,-0.28346 -0.374494,-0.58217 -0.29286,-0.66381 0.08163,-0.0816 -0.04653,-0.22323 -0.284799,-0.31466 -0.238274,-0.0914 -0.370035,-0.26849 -0.292803,-0.39346 0.07723,-0.12496 -0.102045,-0.46967 -0.398394,-0.76602 -0.29635,-0.29635 -0.472555,-0.53882 -0.391567,-0.53882 0.08099,0 -0.06375,-0.35719 -0.32163,-0.79375 -0.257884,-0.43656 -0.569298,-0.79375 -0.692031,-0.79375 -0.122734,0 -0.149568,-0.11906 -0.05963,-0.26458 0.08994,-0.14552 0.01759,-0.26459 -0.160774,-0.26459 -0.178362,0 -0.250438,-0.0738 -0.160168,-0.16412 0.190542,-0.19055 -1.350862,-3.36433 -1.698133,-3.4965 -0.128249,-0.0488 -0.16588,-0.19763 -0.08362,-0.33072 0.08225,-0.1331 0.02347,-0.24199 -0.130643,-0.24199 -0.154109,0 -0.260668,-0.0893 -0.236797,-0.19844 0.08939,-0.40872 -0.375005,-1.65364 -0.616866,-1.65364 -0.138333,0 -0.177931,-0.11907 -0.08799,-0.26459 0.08994,-0.14552 0.04117,-0.26458 -0.108373,-0.26458 -0.149542,0 -0.203361,-0.17859 -0.119599,-0.39687 0.08376,-0.21829 0.04583,-0.39688 -0.08429,-0.39688 -0.130122,0 -0.255959,-0.25718 -0.279636,-0.57151 -0.02368,-0.31432 -0.197843,-0.66969 -0.387034,-0.78969 -0.189191,-0.12001 -0.250497,-0.22002 -0.136237,-0.22225 0.114261,-0.002 0.0592,-0.27194 -0.122357,-0.59936 -0.181557,-0.32742 -0.303201,-0.68943 -0.27032,-0.80447 0.03288,-0.11504 -0.08587,-0.47222 -0.263882,-0.79375 -0.178017,-0.32153 -0.293468,-0.73342 -0.256558,-0.91532 0.03691,-0.1819 -0.05344,-0.33073 -0.200769,-0.33073 -0.147333,0 -0.203966,-0.16655 -0.125852,-0.37011 0.07811,-0.20357 0.02005,-0.4455 -0.12904,-0.53764 -0.149086,-0.0921 -0.203996,-0.34231 -0.122022,-0.55593 0.08197,-0.21362 0.04701,-0.38864 -0.0777,-0.38893 -0.12471,-2.9e-4 -0.253987,-0.3864 -0.287283,-0.85803 -0.0333,-0.47162 -0.169485,-0.89381 -0.302642,-0.9382 -0.133157,-0.0444 -0.181325,-0.31312 -0.107041,-0.59718 0.07428,-0.28407 0.01326,-0.51648 -0.135609,-0.51648 -0.148869,0 -0.208401,-0.23813 -0.132291,-0.52917 0.07611,-0.29104 0.0092,-0.52917 -0.148758,-0.52917 -0.157926,0 -0.223227,-0.16655 -0.145113,-0.37011 0.07811,-0.20356 0.03081,-0.43884 -0.105113,-0.52285 -0.135925,-0.084 -0.189694,-0.45324 -0.119484,-0.82051 0.07021,-0.36728 0.01122,-0.66778 -0.131085,-0.66778 -0.142306,0 -0.201837,-0.29765 -0.132292,-0.66145 0.07205,-0.37688 0.0029,-0.66146 -0.160678,-0.66146 -0.157918,0 -0.218591,-0.1786 -0.134828,-0.39688 0.08376,-0.21828 0.06232,-0.60523 -0.04764,-0.85989 -0.109966,-0.25466 -0.175205,-0.71954 -0.144976,-1.03307 0.03023,-0.31352 -0.05995,-0.64106 -0.200404,-0.72786 -0.140452,-0.0868 -0.193593,-0.39406 -0.11809,-0.68278 0.0755,-0.28872 0.04658,-0.73509 -0.06426,-0.99192 -0.234273,-0.54282 -0.367137,-2.00475 -0.36111,-3.97336 0.0023,-0.76434 -0.08254,-1.53016 -0.188629,-1.70181 -0.301653,-0.48808 -0.274075,-6.81044 0.03017,-6.91684 0.145521,-0.0509 1.313531,-0.1148 2.595578,-0.14201 1.88841,-0.0401 2.445025,0.0402 2.931569,0.42292 0.330316,0.25983 0.551369,0.62003 0.491228,0.80046 -0.06014,0.18042 0.0085,0.32804 0.152514,0.32804 0.144024,0 0.199591,0.23812 0.123482,0.52917 -0.08043,0.30756 -0.0081,0.52916 0.172677,0.52916 0.171081,0 0.243647,0.10907 0.161257,0.24238 -0.08239,0.13331 -0.01079,0.5798 0.159108,0.99219 0.169899,0.41239 0.284594,0.89864 0.254878,1.08054 -0.02972,0.1819 0.06652,0.33073 0.213848,0.33073 0.147333,0 0.199345,0.17859 0.115583,0.39687 -0.08376,0.21828 -0.02423,0.39688 0.132291,0.39688 0.156523,0 0.216054,0.17859 0.132292,0.39687 -0.08383,0.21846 -0.0079,0.39688 0.168903,0.39688 0.176807,0 0.252736,0.17841 0.168903,0.39687 -0.08376,0.21828 -0.04071,0.39688 0.09568,0.39688 0.136387,0 0.179443,0.17859 0.09568,0.39687 -0.08376,0.21828 -0.0205,0.39688 0.140595,0.39688 0.16109,0 0.278792,0.0893 0.261559,0.19843 -0.01723,0.10914 -0.0084,0.25797 0.01966,0.33073 0.02805,0.0728 0.10512,0.42995 0.171275,0.79375 0.06616,0.3638 0.229213,0.69892 0.362351,0.7447 0.133137,0.0458 0.182378,0.23879 0.109424,0.42891 -0.07296,0.19011 0.02303,0.50984 0.213301,0.71051 0.19027,0.20066 0.387611,0.60297 0.438536,0.89401 0.05092,0.29104 0.203989,0.59834 0.340142,0.68289 0.136153,0.0846 0.309849,0.50126 0.385991,0.92604 0.07614,0.42477 0.251243,0.81225 0.389111,0.86106 0.137869,0.0488 0.18337,0.19764 0.101115,0.33073 -0.08225,0.13309 -0.01644,0.24198 0.146258,0.24198 0.162697,0 0.222229,0.11907 0.132292,0.26459 -0.08994,0.14552 -0.03041,0.26458 0.132292,0.26458 0.162697,0 0.222228,0.11906 0.132291,0.26458 -0.08994,0.14553 -0.03041,0.26459 0.132292,0.26459 0.162697,0 0.222228,0.11906 0.132292,0.26458 -0.08994,0.14552 -0.04117,0.26458 0.108372,0.26458 0.149542,0 0.203747,0.17759 0.120455,0.39465 -0.08634,0.22501 0.03031,0.46439 0.271368,0.55689 0.232544,0.0892 0.356933,0.26883 0.27642,0.39911 -0.08051,0.13027 -0.01327,0.23685 0.149426,0.23685 0.162697,0 0.222229,0.11907 0.132292,0.26459 -0.08994,0.14552 -0.03041,0.26458 0.132291,0.26458 0.162698,0 0.222229,0.11906 0.132292,0.26458 -0.08994,0.14553 -0.01759,0.26459 0.160774,0.26459 0.178363,0 0.248058,0.0762 0.154879,0.16941 -0.203447,0.20345 0.629611,1.68267 0.947633,1.68267 0.122734,0 0.149568,0.11906 0.05963,0.26458 -0.08994,0.14553 -0.03743,0.26459 0.116676,0.26459 0.154109,0 0.255719,0.0893 0.2258,0.19844 -0.09194,0.33536 0.84475,1.91822 1.135141,1.91822 0.150372,0 0.1993,0.11991 0.108728,0.26646 -0.09057,0.14655 0.02146,0.33788 0.248968,0.42518 0.227505,0.0873 0.413645,0.32458 0.413645,0.5273 0,0.20271 0.126089,0.36856 0.280198,0.36856 0.154109,0 0.206094,0.11991 0.115522,0.26646 -0.09057,0.14654 0.02078,0.33761 0.247449,0.4246 0.226669,0.087 0.351286,0.25658 0.276926,0.3769 -0.07436,0.12031 0.08892,0.37573 0.36283,0.56759 0.273916,0.19185 0.506347,0.40836 0.516515,0.48112 0.07316,0.52358 0.413022,1.03036 0.609534,0.90891 0.130273,-0.0805 0.236859,0.043 0.236859,0.2744 0,0.23144 0.17791,0.48907 0.395355,0.57251 0.217446,0.0834 0.335402,0.24872 0.262126,0.36728 -0.07328,0.11857 0.31436,0.59727 0.861415,1.06379 0.547055,0.46651 0.816052,0.76432 0.597771,0.66179 -0.218282,-0.10253 0.561849,0.74575 1.733622,1.88506 1.171774,1.13931 1.648024,1.6554 1.058334,1.14687 -0.802764,-0.69228 -0.708788,-0.54269 0.374005,0.59531 1.452873,1.52696 1.945149,1.91783 1.331079,1.05689 -0.181639,-0.25466 0.269538,0.19183 1.002617,0.99219 0.733078,0.80036 1.451642,1.45521 1.596809,1.45521 0.145167,0 0.522382,0.32855 0.838256,0.73012 0.315874,0.40157 0.670822,0.67049 0.788772,0.59759 0.117951,-0.0729 0.415587,0.17442 0.661413,0.5496 0.245827,0.37518 0.516062,0.61304 0.600522,0.52858 0.08446,-0.0845 0.321219,0.0858 0.526129,0.37834 0.204911,0.29255 0.471004,0.47107 0.59132,0.39671 0.120316,-0.0743 0.289922,0.0503 0.376903,0.27693 0.08698,0.22667 0.265575,0.34573 0.396875,0.26458 0.1313,-0.0811 0.306998,0.0304 0.39044,0.24782 0.08344,0.21744 0.334042,0.39535 0.556891,0.39535 0.222848,0 0.405179,0.11601 0.405179,0.25779 0,0.22902 1.371672,1.0842 1.717019,1.07049 0.07429,-0.003 0.377532,0.23711 0.673881,0.53346 0.29635,0.29635 0.653537,0.46791 0.79375,0.38126 0.140213,-0.0867 0.254933,-0.0332 0.254933,0.11883 0,0.31695 3.157814,1.97689 3.365563,1.76914 0.07536,-0.0754 0.304881,0.0309 0.51005,0.23602 0.205168,0.20516 0.567713,0.29832 0.805655,0.20702 0.289355,-0.11104 0.369268,-0.0635 0.241312,0.14353 -0.107136,0.17335 -0.03892,0.3244 0.155034,0.34331 0.190489,0.0186 0.614234,0.0619 0.941656,0.0962 0.861806,0.0903 0.734464,-0.48211 -0.311552,-1.40052 -0.498776,-0.43793 -0.849693,-0.85341 -0.779817,-0.92329 0.06988,-0.0699 -0.192934,-0.37874 -0.584024,-0.68638 -0.391091,-0.30763 -0.60572,-0.56311 -0.476955,-0.56774 0.128766,-0.005 0.04371,-0.15346 -0.189011,-0.33073 -0.232722,-0.17727 -0.462659,-0.44138 -0.510971,-0.5869 -0.216962,-0.65351 -1.1268,-1.98437 -1.356606,-1.98437 -0.139735,0 -0.185002,-0.11175 -0.100593,-0.24833 0.08441,-0.13657 -0.05739,-0.37108 -0.315114,-0.52112 -0.257722,-0.15004 -0.371671,-0.27642 -0.253219,-0.28084 0.288989,-0.0108 -0.910628,-2.12471 -1.205744,-2.12471 -0.127312,0 -0.157893,-0.11907 -0.06796,-0.26459 0.08994,-0.14552 0.05728,-0.26458 -0.07258,-0.26458 -0.129856,0 -0.236101,-0.16556 -0.236101,-0.36791 0,-0.57156 -0.654558,-2.01334 -0.914044,-2.01334 -0.127866,0 -0.209803,-0.0893 -0.182081,-0.19844 0.108171,-0.42587 -0.371229,-1.91823 -0.616207,-1.91823 -0.142547,0 -0.198476,-0.0982 -0.124288,-0.21825 0.132343,-0.21413 -0.540775,-3.12222 -0.831774,-3.59353 -0.08147,-0.13195 -0.194827,-0.78331 -0.251905,-1.44746 -0.05708,-0.66416 -0.221143,-1.28009 -0.36459,-1.36875 -0.143446,-0.0887 -0.184509,-0.36003 -0.09125,-0.60305 0.09326,-0.24303 0.08427,-0.65023 -0.01998,-0.90489 -0.250439,-0.61178 -0.359162,-2.18282 -0.151061,-2.18282 0.09001,0 0.374643,-0.39178 0.632518,-0.87062 0.281729,-0.52314 0.692246,-0.88746 1.028548,-0.91279 0.307826,-0.0232 0.629928,-0.13742 0.715782,-0.25385 0.08585,-0.11643 1.346723,-0.23416 2.801932,-0.26162 1.455208,-0.0275 6.092576,-0.12799 10.305262,-0.2234 8.207659,-0.18591 8.681328,-0.1365 10.927605,1.13989 0.618495,0.35145 1.057433,0.74757 0.975418,0.88027 -0.08201,0.1327 0.03634,0.31244 0.263007,0.39943 0.226669,0.087 0.346251,0.26473 0.265739,0.395 -0.08051,0.13027 -0.04564,0.23686 0.07751,0.23686 0.123142,0 0.243267,0.25718 0.266944,0.57151 0.02368,0.31433 0.178247,0.65506 0.343486,0.75718 0.16524,0.10213 0.290267,0.26167 0.277838,0.35454 -0.01243,0.0929 -0.01349,0.19862 -0.0024,0.235 0.01113,0.0364 0.06418,0.30211 0.117884,0.59051 0.0537,0.2884 0.223928,0.56646 0.37828,0.61791 0.154352,0.0514 0.21334,0.20244 0.131085,0.33553 -0.08226,0.13309 -0.01644,0.24199 0.146258,0.24199 0.162697,0 0.222228,0.11906 0.132291,0.26458 -0.08994,0.14552 -0.03041,0.26458 0.132292,0.26458 0.162697,0 0.222229,0.11907 0.132292,0.26459 -0.08994,0.14552 -0.05728,0.26458 0.07258,0.26458 0.129856,0 0.236101,0.15116 0.236101,0.33591 0,0.45615 1.420577,2.57451 1.726469,2.57451 0.134771,0 0.176489,0.11091 0.09271,0.24648 -0.08378,0.13556 0.08703,0.41413 0.379577,0.61904 0.29255,0.20491 0.476391,0.42808 0.408536,0.49594 -0.06786,0.0679 0.647277,0.88717 1.589183,1.82071 0.941906,0.93353 1.712556,1.59828 1.712556,1.47723 0,-0.12106 0.23417,0.061 0.52037,0.40451 0.2862,0.34355 0.52432,0.52214 0.52916,0.39688 0.005,-0.12526 0.21717,0.0185 0.47183,0.31949 0.25466,0.30098 0.63696,0.58206 0.84956,0.62462 0.2126,0.0426 0.61759,0.28163 0.89997,0.53126 0.28238,0.24963 0.61445,0.39143 0.73793,0.31511 0.12349,-0.0763 0.22452,-0.006 0.22452,0.15706 0,0.1627 0.11906,0.22223 0.26458,0.13229 0.14552,-0.0899 0.26458,-0.0304 0.26458,0.13229 0,0.1627 0.11907,0.22223 0.26459,0.1323 0.14552,-0.0899 0.26458,-0.0304 0.26458,0.13229 0,0.16269 0.11906,0.22223 0.26458,0.13229 0.14552,-0.0899 0.26459,-0.0491 0.26459,0.0908 0,0.30441 1.47598,0.85857 1.6973,0.63726 0.0851,-0.0851 0.15478,-0.003 0.15478,0.1822 0,0.19084 0.17212,0.27094 0.39688,0.18469 0.21828,-0.0838 0.39687,-0.0242 0.39687,0.13229 0,0.15653 0.17859,0.21606 0.39687,0.1323 0.21829,-0.0838 0.39688,-0.0242 0.39688,0.13229 0,0.15652 0.17478,0.21752 0.3884,0.13554 0.21362,-0.082 0.46379,-0.0271 0.55593,0.12202 0.0921,0.14909 0.33027,0.20862 0.52917,0.13229 0.1989,-0.0763 0.43702,-0.0168 0.52916,0.1323 0.0921,0.14908 0.33027,0.20861 0.52917,0.13229 0.1989,-0.0763 0.43797,-0.0153 0.53127,0.13569 0.0933,0.15096 0.4543,0.20302 0.80222,0.1157 0.39218,-0.0984 0.6326,-0.0432 0.6326,0.14526 0,0.20383 0.39241,0.2598 1.19062,0.16983 0.69,-0.0778 1.19063,-0.0255 1.19063,0.12421 0,0.16097 0.92284,0.19856 2.44739,0.0997 1.34607,-0.0873 2.84454,-0.15794 3.32994,-0.157 0.48539,9.5e-4 1.01516,-0.0802 1.17726,-0.18043 0.31536,-0.19491 1.27089,-0.34506 2.23968,-0.35196 0.32742,-0.002 0.59531,-0.11822 0.59531,-0.25755 0,-0.13932 0.17859,-0.18478 0.39687,-0.10102 0.21829,0.0838 0.39688,0.0135 0.39688,-0.15621 0,-0.16968 0.12139,-0.23348 0.26976,-0.14178 0.339,0.20951 2.11149,-0.35869 2.11149,-0.67687 0,-0.12967 0.16324,-0.17312 0.36276,-0.0966 0.19952,0.0766 0.54253,-0.0406 0.76225,-0.26029 0.21972,-0.21972 0.4732,-0.32579 0.56328,-0.2357 0.0901,0.0901 0.16379,0.0179 0.16379,-0.16051 0,-0.17836 0.11906,-0.25071 0.26459,-0.16077 0.14552,0.0899 0.26458,0.0304 0.26458,-0.13229 0,-0.1627 0.11906,-0.22223 0.26458,-0.13229 0.14552,0.0899 0.26459,0.0304 0.26459,-0.1323 0,-0.16269 0.11906,-0.22222 0.26458,-0.13229 0.14552,0.0899 0.26458,0.0374 0.26458,-0.11667 0,-0.15411 0.0893,-0.25491 0.19844,-0.22399 0.35966,0.10188 1.56873,-0.65512 2.73094,-1.70986 0.28061,-0.25466 0.62116,-0.46302 0.75677,-0.46302 0.13561,0 0.50191,-0.35859 0.81398,-0.79686 0.31208,-0.43827 0.66808,-0.73465 0.79112,-0.65861 0.22021,0.1361 3.04009,-2.91201 2.86728,-3.09935 -0.0488,-0.0529 0.30414,-0.48025 0.78433,-0.94964 0.48018,-0.4694 0.80829,-0.95826 0.72912,-1.08635 -0.0792,-0.1281 0.0415,-0.30407 0.26819,-0.39105 0.22666,-0.087 0.33802,-0.27806 0.24744,-0.4246 -0.0906,-0.14655 -0.0316,-0.26646 0.13114,-0.26646 0.1627,0 0.22223,-0.11906 0.13229,-0.26458 -0.0899,-0.14552 -0.0312,-0.26458 0.13044,-0.26458 0.28784,0 0.96683,-1.5266 0.85319,-1.91823 -0.0317,-0.10914 0.0424,-0.19844 0.16453,-0.19844 0.31134,0 0.87522,-1.31035 0.69167,-1.60733 -0.0832,-0.13461 -0.0124,-0.24475 0.15724,-0.24475 0.16968,0 0.23997,-0.1786 0.15621,-0.39688 -0.0838,-0.21828 -0.0242,-0.39687 0.13229,-0.39687 0.15653,0 0.21606,-0.1786 0.13229,-0.39688 -0.0838,-0.21828 -0.0242,-0.39687 0.1323,-0.39687 0.15652,0 0.22162,-0.16409 0.14466,-0.36464 -0.077,-0.20055 -0.032,-0.47259 0.1,-0.60453 0.13195,-0.13195 0.27914,-0.59833 0.3271,-1.0364 0.048,-0.43807 0.18112,-0.94847 0.29592,-1.13422 0.29297,-0.47403 0.52552,-3.43745 0.49068,-6.25292 -0.0162,-1.30969 -0.0349,-2.87769 -0.0416,-3.48445 -0.007,-0.60676 -0.11934,-1.16946 -0.25039,-1.25045 -0.13105,-0.081 -0.18083,-0.44776 -0.11062,-0.81503 0.0702,-0.36728 0.006,-0.66778 -0.143,-0.66778 -0.14886,0 -0.20839,-0.23812 -0.13228,-0.52916 0.0761,-0.29105 0.0166,-0.52917 -0.13229,-0.52917 -0.14887,0 -0.2084,-0.23813 -0.13229,-0.52917 0.0761,-0.29104 0.009,-0.52916 -0.14876,-0.52916 -0.15793,0 -0.2186,-0.1786 -0.13484,-0.39688 0.0838,-0.21828 0.0242,-0.39687 -0.13229,-0.39687 -0.15653,0 -0.21606,-0.1786 -0.1323,-0.39688 0.0838,-0.21828 0.0242,-0.39687 -0.13229,-0.39687 -0.15652,0 -0.21605,-0.1786 -0.13229,-0.39688 0.0838,-0.21828 0.0242,-0.39687 -0.13229,-0.39687 -0.15652,0 -0.22195,-0.16325 -0.14538,-0.36276 0.0766,-0.19952 -0.0406,-0.54254 -0.26029,-0.76226 -0.21972,-0.21972 -0.32579,-0.47319 -0.2357,-0.56328 0.0901,-0.0901 0.0179,-0.16379 -0.16051,-0.16379 -0.17836,0 -0.25071,-0.11906 -0.16077,-0.26458 0.0899,-0.14552 0.0374,-0.26458 -0.11668,-0.26458 -0.15411,0 -0.25661,-0.0893 -0.22778,-0.19844 0.0954,-0.3611 -0.3482,-1.38906 -0.59941,-1.38906 -0.13572,0 -0.22317,-0.0893 -0.19434,-0.19844 0.10984,-0.41581 -0.36664,-1.38962 -0.60719,-1.24095 -0.13865,0.0857 -0.22466,0.0577 -0.19113,-0.0623 0.1156,-0.41366 -0.85427,-1.934 -1.50629,-2.36122 -0.35953,-0.23557 -0.59556,-0.52235 -0.52452,-0.6373 0.071,-0.11494 -0.31694,-0.57449 -0.86217,-1.02121 -0.54523,-0.44673 -1.26918,-1.0838 -1.60879,-1.41572 -0.3396,-0.33192 -0.66473,-0.54396 -0.7225,-0.4712 -0.0578,0.0728 -0.29409,-0.13759 -0.52513,-0.46744 -0.23104,-0.32986 -0.51851,-0.5389 -0.63883,-0.46454 -0.12031,0.0743 -0.28992,-0.0503 -0.3769,-0.27693 -0.087,-0.22667 -0.26557,-0.34573 -0.39688,-0.26458 -0.1313,0.0811 -0.30989,-0.0379 -0.39687,-0.26459 -0.087,-0.22667 -0.27805,-0.33802 -0.4246,-0.24745 -0.14655,0.0906 -0.26645,0.0187 -0.26645,-0.15962 0,-0.17836 -0.0722,-0.25209 -0.16046,-0.16384 -0.0882,0.0883 -0.41149,-0.0734 -0.71831,-0.35926 -0.30682,-0.28585 -0.71087,-0.46101 -0.89788,-0.38925 -0.18701,0.0718 -0.34002,0.008 -0.34002,-0.14142 0,-0.14954 -0.11906,-0.19831 -0.26458,-0.10837 -0.14552,0.0899 -0.26458,0.0304 -0.26458,-0.13229 0,-0.1627 -0.11907,-0.22223 -0.26459,-0.13229 -0.14552,0.0899 -0.26458,0.0247 -0.26458,-0.14499 0,-0.16967 -0.17859,-0.23997 -0.39688,-0.15621 -0.21828,0.0838 -0.39687,0.057 -0.39687,-0.0596 0,-0.27157 -1.86782,-0.85134 -2.16032,-0.67056 -0.12151,0.0751 -0.22093,-0.002 -0.22093,-0.17197 0,-0.16968 -0.17478,-0.24144 -0.3884,-0.15946 -0.21362,0.082 -0.46519,0.0248 -0.55903,-0.12704 -0.0938,-0.15184 -0.39519,-0.21735 -0.66967,-0.14557 -0.27447,0.0718 -0.56871,0.0178 -0.65386,-0.12001 -0.0851,-0.13777 -0.38293,-0.1781 -0.66172,-0.0896 -0.30697,0.0974 -0.5069,0.0358 -0.5069,-0.15615 0,-0.21297 -0.29619,-0.26896 -0.90242,-0.17059 -0.49632,0.0806 -0.97672,0.0721 -1.06753,-0.0187 -0.19919,-0.19918 -8.63955,-0.29109 -8.99676,-0.098 -0.1381,0.0747 -0.81931,0.16448 -1.5138,0.1996 -0.6945,0.0351 -1.41494,0.15931 -1.601,0.27597 -0.18606,0.11667 -0.54664,0.17784 -0.80131,0.13595 -0.25466,-0.0419 -0.46302,0.0392 -0.46302,0.18027 0,0.14104 -0.23812,0.19417 -0.52916,0.11806 -0.29104,-0.0761 -0.52917,-0.009 -0.52917,0.14876 0,0.15793 -0.17859,0.21861 -0.39687,0.13484 -0.21829,-0.0838 -0.39688,-0.0242 -0.39688,0.1323 0,0.15652 -0.17859,0.21605 -0.39687,0.13229 -0.21829,-0.0838 -0.39688,-0.0242 -0.39688,0.13229 0,0.15652 -0.17859,0.21605 -0.39687,0.13229 -0.21829,-0.0838 -0.39688,-0.0242 -0.39688,0.13229 0,0.15652 -0.16324,0.22195 -0.36276,0.14538 -0.19952,-0.0766 -0.52977,0.0165 -0.7339,0.20675 -0.20413,0.19027 -0.54691,0.37597 -0.76172,0.41268 -0.62623,0.107 -2.63954,1.2242 -2.63954,1.4647 0,0.12077 -0.11472,0.14868 -0.25493,0.062 -0.14021,-0.0867 -0.4974,0.0849 -0.79375,0.38126 -0.29635,0.29635 -0.54244,0.44952 -0.54686,0.34038 -0.004,-0.10915 -0.13081,0.0124 -0.28085,0.27014 -0.15004,0.25773 -0.37639,0.40456 -0.50301,0.32631 -0.126627,-0.0783 -0.419259,0.1276 -0.650299,0.45745 -0.231041,0.32986 -0.482038,0.56349 -0.557773,0.51918 -0.07573,-0.0443 -0.460394,0.17288 -0.8548,0.48264 -0.394406,0.30977 -0.538508,0.48691 -0.320227,0.39366 0.218281,-0.0932 -0.3175,0.50276 -1.190625,1.32448 -0.873125,0.82171 -1.5875,1.59674 -1.5875,1.72228 0,0.12554 -0.26789,0.47783 -0.595312,0.78287 -0.327422,0.30504 -0.595313,0.46664 -0.595313,0.3591 0,-0.10753 -0.142875,-0.0526 -0.3175,0.12199 -0.174625,0.17462 -0.531812,0.3175 -0.79375,0.3175 -0.261937,0 -0.47625,0.0893 -0.47625,0.19844 0,0.10914 -0.595312,0.19843 -1.322916,0.19843 -0.727604,0 -1.322917,-0.0981 -1.322917,-0.21805 0,-0.11993 -0.565547,-0.19433 -1.256771,-0.16535 -0.691224,0.029 -1.468804,-0.0359 -1.727955,-0.14411 -0.259151,-0.10825 -0.820082,-0.12705 -1.246512,-0.0418 -0.42643,0.0853 -0.847896,0.0377 -0.936592,-0.10587 -0.0887,-0.14351 -0.599328,-0.26238 -1.134738,-0.26415 -1.594878,-0.005 -3.059593,-0.1593 -3.557115,-0.37402 -0.256836,-0.11085 -0.703201,-0.13977 -0.991923,-0.0643 -0.288723,0.0755 -0.596713,0.0212 -0.684423,-0.12075 -0.08771,-0.14192 -0.593844,-0.23389 -1.124742,-0.20437 -0.530899,0.0295 -1.143864,-0.0167 -1.362145,-0.10264 -0.218281,-0.086 -0.694531,-0.15959 -1.058333,-0.1636 -1.197471,-0.0132 -1.852083,-0.12594 -1.852083,-0.31888 0,-0.18264 -0.905998,-0.56965 -1.455209,-0.62161 -0.14552,-0.0138 -0.233713,-0.17176 -0.195983,-0.3511 0.03773,-0.17934 -0.110414,-0.39476 -0.32921,-0.47872 -0.218795,-0.084 -0.331935,-0.25924 -0.251422,-0.38951 0.08051,-0.13027 0.04581,-0.23686 -0.07711,-0.23686 -0.122926,0 -0.239742,-0.20836 -0.259591,-0.46302 -0.202264,-2.59502 -0.203083,-3.24115 -0.0041,-3.24115 0.127563,0 0.198448,-0.38866 0.157521,-0.8637 -0.04093,-0.47504 0.02069,-1.01759 0.136928,-1.20567 0.116238,-0.18807 0.140164,-0.62554 0.05317,-0.97216 -0.08699,-0.34661 -0.03978,-0.70337 0.104926,-0.79281 0.144704,-0.0894 0.269929,-0.60274 0.278277,-1.14069 0.02781,-1.79164 0.119945,-2.4333 0.349411,-2.4333 0.125061,0 0.178734,-0.41672 0.119274,-0.92604 -0.05946,-0.50932 0.0027,-0.92604 0.138182,-0.92604 0.135461,0 0.182414,-0.47625 0.10434,-1.05834 -0.07893,-0.58848 -0.03091,-1.05833 0.108172,-1.05833 0.137569,0 0.249469,-0.44648 0.248666,-0.99219 -0.0024,-1.60742 0.106203,-2.55729 0.333158,-2.91485 0.117007,-0.18433 0.186777,-0.60105 0.155046,-0.92604 -0.03173,-0.32498 0.03296,-0.80102 0.143762,-1.05785 0.110801,-0.25684 0.13965,-0.70332 0.06411,-0.99219 -0.07554,-0.28887 -0.02031,-0.52521 0.122739,-0.52521 0.143046,0 0.234475,-0.38696 0.203175,-0.8599 -0.0313,-0.47294 0.03185,-1.06825 0.140328,-1.32292 0.10848,-0.25466 0.122912,-0.6567 0.03207,-0.89343 -0.09084,-0.23672 -0.03004,-0.59323 0.135119,-0.79223 0.165156,-0.199 0.243252,-0.66016 0.173547,-1.02479 -0.06971,-0.36464 -0.01506,-0.66298 0.121429,-0.66298 0.13649,0 0.214679,-0.38867 0.173752,-0.863708 -0.04093,-0.475038 0.01194,-1.003422 0.117475,-1.174186 0.105538,-0.170765 0.191099,-0.6453 0.190136,-1.054524 -9.64e-4,-0.409223 0.06767,-1.220293 0.152515,-1.802376 0.08485,-0.582083 0.184051,-1.42722 0.220452,-1.878081 0.0364,-0.450861 0.140894,-0.940629 0.232205,-1.088373 0.09131,-0.147745 0.168765,-0.671827 0.17212,-1.164628 0.0072,-1.062112 0.125541,-1.78321 0.397263,-2.421309 0.109369,-0.256836 0.137077,-0.703202 0.06158,-0.991924 -0.0755,-0.288722 -0.02627,-0.593558 0.109414,-0.677413 0.135681,-0.08385 0.250326,-0.530458 0.254767,-0.992451 0.01853,-1.927238 0.123039,-2.824362 0.329031,-2.824362 0.12029,0 0.1931,-0.386953 0.1618,-0.859896 -0.0313,-0.472942 0.03253,-1.070034 0.141845,-1.32687 0.109314,-0.256836 0.136979,-0.703202 0.06148,-0.991924 -0.0755,-0.288722 -0.02166,-0.596406 0.119656,-0.683743 0.141313,-0.08734 0.232111,-0.474407 0.201774,-0.860159 -0.03034,-0.385751 0.01634,-0.87996 0.103737,-1.098241 0.08739,-0.218281 0.167296,-0.694531 0.177563,-1.058333 0.05265,-1.865652 0.157252,-2.645833 0.354735,-2.645833 0.120108,0 0.192318,-0.327422 0.160467,-0.727605 -0.03185,-0.400182 0.03155,-0.936229 0.140885,-1.191216 0.109338,-0.254987 0.124156,-0.761003 0.03293,-1.124479 -0.101293,-0.403581 -0.05301,-0.660867 0.124029,-0.660867 0.166132,0 0.258127,-0.368737 0.215483,-0.863705 -0.04093,-0.475038 0.02069,-1.017587 0.136929,-1.205663 0.116237,-0.188076 0.140164,-0.62555 0.05317,-0.972163 -0.08699,-0.346613 -0.03094,-0.70884 0.124572,-0.80495 0.155508,-0.09611 0.257921,-0.490359 0.227584,-0.876111 -0.03034,-0.385751 0.0343,-0.909992 0.143638,-1.164978 0.109338,-0.254987 0.124156,-0.761003 0.03293,-1.124479 -0.104857,-0.417784 -0.05396,-0.660867 0.138376,-0.660867 0.199941,0 0.252725,-0.317469 0.153967,-0.926042 -0.08896,-0.548169 -0.04083,-0.926041 0.117945,-0.926041 0.147521,0 0.234735,-0.388668 0.193808,-0.863706 -0.04093,-0.475038 0.02069,-1.017586 0.136928,-1.205663 0.116238,-0.188076 0.140164,-0.625549 0.05317,-0.972162 -0.08699,-0.346613 -0.03555,-0.705993 0.11433,-0.798621 0.149876,-0.09263 0.276136,-0.54641 0.280577,-1.008403 0.01741,-1.811071 0.117797,-2.824362 0.279812,-2.824362 0.142909,0 0.322279,-0.771255 0.535714,-2.303465 0.02445,-0.1755 0.135095,-0.263068 0.245886,-0.194596 0.11079,0.06847 0.278112,-0.117087 0.371827,-0.412355 0.09371,-0.295268 0.259651,-0.481684 0.368748,-0.414258 0.109098,0.06743 0.532269,-0.05064 0.940382,-0.262373 0.641966,-0.333056 6.329883,-0.374783 42.182072,-0.309454 22.79202,0.04153 41.67817,0.152219 41.96921,0.245972 0.29104,0.09375 0.5887,0.193668 0.66146,0.222035 0.0728,0.02837 0.23044,0.03453 0.35039,0.01369 0.11996,-0.02084 0.15379,0.06618 0.0752,0.193375 -0.0786,0.127194 0.1466,0.386213 0.50047,0.575598 0.35387,0.189385 0.58531,0.438317 0.51432,0.553182 -0.071,0.114865 0.0224,0.350312 0.20747,0.523216 0.26169,0.24445 0.32343,2.281202 0.27757,9.157647 -0.0324,4.863802 -0.12876,8.956192 -0.21405,9.094199 -0.0853,0.138007 -0.0815,0.369984 0.008,0.515505 0.0899,0.145521 0.0565,0.264583 -0.0742,0.264583 -0.23992,0 -0.9303,1.230053 -0.96524,1.719792 -0.0104,0.145521 -0.17206,0.264583 -0.35926,0.264583 -0.18721,0 -0.45328,0.178594 -0.59127,0.396875 -0.13798,0.218282 -0.2527,0.303389 -0.25493,0.189129 -0.002,-0.114261 -0.23663,-0.08327 -0.52089,0.06886 -0.35124,0.187977 -10.57484,0.276267 -31.9075,0.27555 -31.13569,-0.001 -31.39177,0.0032 -31.52859,0.526454 -0.0759,0.290129 -0.2521,0.527508 -0.39162,0.527508 -0.13951,0 -0.21931,0.327494 -0.17732,0.727763 0.042,0.40027 -0.0173,0.879213 -0.13167,1.064317 -0.1144,0.185105 -0.18222,0.661283 -0.15072,1.058175 0.0315,0.396891 -0.0274,0.917721 -0.13083,1.1574 -0.10346,0.239679 -0.1613,0.596866 -0.12853,0.79375 0.0328,0.196883 -0.0322,0.568315 -0.14444,0.825404 -0.11221,0.257088 -0.1475,0.763104 -0.0784,1.124479 0.0691,0.361375 0.007,0.657045 -0.13691,0.657045 -0.15198,0 -0.19957,0.387854 -0.11302,0.921194 0.0822,0.506656 0.0305,0.994713 -0.11486,1.084571 -0.1454,0.08986 -0.23953,0.478992 -0.20919,0.864744 0.0303,0.385751 -0.0349,0.911505 -0.14493,1.168341 -0.11005,0.256836 -0.13828,0.70332 -0.0627,0.992187 0.0755,0.288867 0.0246,0.525213 -0.11319,0.525213 -0.13779,0 -0.24811,0.446484 -0.24516,0.992187 0.003,0.545703 -0.0633,1.468438 -0.14725,2.050521 -0.0839,0.582083 -0.182406,1.42722 -0.218808,1.878081 -0.0364,0.450861 -0.146364,0.94948 -0.24436,1.108041 -0.098,0.158561 -0.178863,0.623112 -0.179704,1.032335 -0.0024,1.166884 -0.148911,2.347333 -0.327131,2.635699 -0.08961,0.144984 -0.115047,0.641877 -0.05654,1.104205 0.06234,0.492584 -0.01228,0.840597 -0.180248,0.840597 -0.179527,0 -0.230773,0.344219 -0.137143,0.921194 0.08222,0.506652 0.03736,0.990492 -0.09968,1.075182 -0.279777,0.17292 -0.203124,2.36718 0.09304,2.66334 0.105036,0.10504 0.190975,0.045 0.190975,-0.13332 0,-0.17836 0.119062,-0.25071 0.264583,-0.16077 0.145521,0.0899 0.264583,0.0628 0.264583,-0.0604 0,-0.12314 0.266127,-0.24394 0.591393,-0.26844 0.32527,-0.0245 0.63309,-0.16964 0.68406,-0.32253 0.051,-0.1529 0.20155,-0.21069 0.33465,-0.12844 0.13309,0.0823 0.24198,0.0272 0.24198,-0.12234 0,-0.14954 0.17859,-0.20336 0.39688,-0.1196 0.21828,0.0838 0.39687,0.0135 0.39687,-0.15621 0,-0.16967 0.11084,-0.24 0.2463,-0.15628 0.13547,0.0837 0.32229,0.0293 0.41516,-0.12099 0.0929,-0.15027 0.27969,-0.20472 0.41516,-0.121 0.13546,0.0837 0.2463,0.0299 0.2463,-0.11967 0,-0.14954 0.17859,-0.20336 0.39687,-0.1196 0.21828,0.0838 0.39688,0.0242 0.39688,-0.13229 0,-0.15652 0.17859,-0.21605 0.39687,-0.13229 0.21828,0.0838 0.39688,0.0242 0.39688,-0.13229 0,-0.15652 0.17859,-0.21606 0.39687,-0.13229 0.21828,0.0838 0.39688,0.0242 0.39688,-0.13229 0,-0.15653 0.17859,-0.21606 0.39687,-0.1323 0.21828,0.0838 0.39688,0.0242 0.39688,-0.13229 0,-0.15652 0.17859,-0.21605 0.39687,-0.13229 0.21828,0.0838 0.39688,0.0316 0.39688,-0.11582 0,-0.14747 0.23812,-0.20585 0.52916,-0.12975 0.29105,0.0761 0.52917,0.009 0.52917,-0.14875 0,-0.157926 0.16655,-0.223227 0.37011,-0.145113 0.20356,0.07811 0.44181,0.02602 0.52943,-0.115756 0.0876,-0.14178 0.39733,-0.195542 0.68822,-0.119471 0.2909,0.07607 0.52891,0.02521 0.52891,-0.113034 0,-0.251475 0.41556,-0.347219 1.50824,-0.347491 0.32021,-8e-5 0.64479,-0.101419 0.72129,-0.225197 0.0765,-0.123778 0.43958,-0.167607 0.80686,-0.0974 0.38216,0.07305 0.66777,0.0048 0.66777,-0.159471 0,-0.157918 0.1786,-0.218591 0.39688,-0.134829 0.21828,0.08376 0.60523,0.06294 0.85989,-0.04627 0.25467,-0.109213 0.77864,-0.173747 1.16439,-0.14341 0.38575,0.03034 0.77489,-0.0638 0.86474,-0.209192 0.0899,-0.145393 0.57272,-0.197925 1.07302,-0.116738 0.5003,0.08119 1.12319,0.0612 1.38421,-0.04442 0.58441,-0.236478 10.93106,-0.220869 11.55205,0.01743 0.24653,0.0946 0.79713,0.102223 1.22356,0.01694 0.43517,-0.08704 0.85195,-0.03109 0.94997,0.127506 0.0962,0.155654 0.51213,0.215074 0.92604,0.132292 0.41327,-0.08265 0.82899,-0.02474 0.92381,0.128687 0.0948,0.153431 0.39698,0.22024 0.67146,0.148464 0.27447,-0.07178 0.57213,-0.01225 0.66145,0.132292 0.0893,0.144536 0.38699,0.204068 0.66146,0.132291 0.27448,-0.07178 0.57213,-0.01225 0.66146,0.132292 0.0893,0.144537 0.3871,0.204037 0.66172,0.132223 0.27462,-0.07182 0.49931,-0.0088 0.49931,0.1401 0,0.14887 0.23812,0.208401 0.52917,0.132292 0.29104,-0.07611 0.52916,-0.01773 0.52916,0.12974 0,0.147467 0.19884,0.191819 0.44187,0.09856 0.24303,-0.09326 0.5199,-0.0433 0.61527,0.111012 0.0954,0.154314 0.55114,0.307175 1.01281,0.339691 0.46168,0.0325 0.83965,0.16115 0.83994,0.28586 2.9e-4,0.12471 0.17912,0.15821 0.3974,0.0745 0.21828,-0.0838 0.39688,-0.0242 0.39688,0.13229 0,0.15652 0.17859,0.21606 0.39687,0.13229 0.21828,-0.0838 0.39688,-0.0499 0.39688,0.0753 0,0.23605 1.27983,0.67758 1.68676,0.5819 0.12735,-0.0299 0.44727,0.14079 0.71093,0.3794 0.26366,0.2386 0.60595,0.35561 0.76064,0.26 0.15469,-0.0956 0.28125,-0.0622 0.28125,0.0743 0,0.27163 1.42507,0.92966 2.01334,0.92966 0.20235,0 0.36791,0.10624 0.36791,0.2361 0,0.12985 0.11906,0.16251 0.26458,0.0726 0.14553,-0.0899 0.26459,-0.0304 0.26459,0.13229 0,0.16269 0.11906,0.22223 0.26458,0.13229 0.14552,-0.0899 0.26458,-0.0304 0.26458,0.13229 0,0.1627 0.11907,0.22223 0.26459,0.13229 0.14552,-0.0899 0.26458,-0.0405 0.26458,0.10988 0,0.15038 0.35719,0.45812 0.79375,0.68387 0.43656,0.22576 0.79375,0.33937 0.79375,0.25248 0,-0.0869 0.1871,0.0291 0.41577,0.25779 0.22868,0.22868 0.57595,0.41577 0.77171,0.41577 0.19576,0 0.39561,0.0893 0.44412,0.19844 0.14853,0.33421 2.0723,1.69477 2.07662,1.46867 0.002,-0.11654 0.11695,-0.0333 0.25493,0.18498 0.13799,0.21828 0.36087,0.39687 0.49529,0.39687 0.13442,0 0.50503,0.29766 0.82356,0.66146 0.31853,0.3638 0.49748,0.48286 0.39766,0.26458 -0.0998,-0.21828 0.11795,-0.0397 0.48393,0.39688 0.36598,0.43656 0.766,0.7957 0.88893,0.79809 0.18317,0.004 1.19113,1.02822 4.55046,4.62587 0.0679,0.0728 0.0265,-0.0349 -0.0921,-0.23932 -0.14616,-0.25195 -0.11584,-0.30996 0.0942,-0.18016 0.17038,0.1053 0.24799,0.29144 0.17246,0.41364 -0.0755,0.1222 0.21359,0.51745 0.64248,0.87834 0.42888,0.36088 0.72849,0.70744 0.6658,0.77013 -0.0627,0.0627 0.3011,0.56715 0.80842,1.12101 0.50732,0.55387 0.92241,1.11113 0.92241,1.23836 0,0.12723 0.11906,0.23133 0.26458,0.23133 0.14552,0 0.24215,0.0893 0.21472,0.19844 -0.0833,0.33147 1.1406,2.18281 1.44301,2.18281 0.1554,0 0.20631,0.0762 0.11313,0.16942 -0.20345,0.20344 0.62961,1.68266 0.94763,1.68266 0.12274,0 0.14957,0.11907 0.0596,0.26459 -0.0899,0.14552 -0.0304,0.26458 0.13229,0.26458 0.16269,0 0.22816,0.10946 0.14547,0.24325 -0.0827,0.13379 0.0237,0.41727 0.23637,0.62996 0.21269,0.21269 0.313,0.46042 0.22292,0.5505 -0.0901,0.0901 -0.0179,0.16379 0.1605,0.16379 0.17837,0 0.25072,0.11906 0.16078,0.26458 -0.0899,0.14552 -0.0304,0.26459 0.13229,0.26459 0.1627,0 0.22223,0.11906 0.13229,0.26458 -0.0899,0.14552 -0.0412,0.26458 0.10837,0.26458 0.14955,0 0.20926,0.16324 0.13269,0.36276 -0.0766,0.19952 0.0165,0.52694 0.20675,0.72761 0.19027,0.20066 0.38761,0.60297 0.43853,0.89401 0.0509,0.29104 0.16999,0.5887 0.26459,0.66146 0.0946,0.0728 0.21266,0.37041 0.26237,0.66145 0.0497,0.29105 0.19185,0.56663 0.31587,0.61241 0.12401,0.0458 0.1599,0.25414 0.0797,0.46302 -0.0802,0.20888 -0.0177,0.37978 0.13886,0.37978 0.15652,0 0.21605,0.1786 0.13229,0.39688 -0.0838,0.21828 -0.0316,0.39687 0.11582,0.39687 0.14747,0 0.20585,0.23813 0.12974,0.52917 -0.0761,0.29104 -0.009,0.52917 0.14876,0.52917 0.15793,0 0.21861,0.17859 0.13484,0.39687 -0.0838,0.21828 -0.0316,0.39688 0.11583,0.39688 0.14747,0 0.20585,0.23812 0.12974,0.52916 -0.0761,0.29104 -0.0166,0.52917 0.13229,0.52917 0.14887,0 0.2084,0.23812 0.13229,0.52917 -0.0808,0.30913 -0.008,0.52916 0.17489,0.52916 0.18828,0 0.24908,0.20225 0.15239,0.5069 -0.0885,0.2788 -0.0422,0.58027 0.10291,0.66993 0.14508,0.0897 0.19891,0.33211 0.11961,0.53877 -0.0793,0.20665 -0.0487,0.53019 0.0679,0.71897 0.11667,0.18878 0.17778,0.67073 0.1358,1.071 -0.042,0.40027 0.0309,0.72777 0.16189,0.72777 0.13102,0 0.24591,0.38695 0.25531,0.85989 0.009,0.47294 0.0777,1.57427 0.1517,2.4474 0.36121,4.25935 0.0833,12.35961 -0.4698,13.69218 -0.1057,0.25467 -0.12511,0.63781 -0.0431,0.85143 0.082,0.21362 0.024,0.4657 -0.1289,0.56018 -0.15287,0.0945 -0.22317,0.45832 -0.15622,0.80853 0.067,0.35022 0.0105,0.7055 -0.12541,0.7895 -0.13593,0.084 -0.18469,0.31548 -0.10837,0.51438 0.0763,0.1989 0.0168,0.43703 -0.13229,0.52917 -0.14909,0.0921 -0.20715,0.33408 -0.12904,0.53764 0.0781,0.20356 0.0468,0.37011 -0.0695,0.37011 -0.11637,0 -0.36273,0.28243 -0.54747,0.62763 -0.33072,0.61796 -1.04552,0.78795 -1.37923,0.328 -0.0938,-0.12925 -0.53999,-0.24831 -0.99159,-0.26458 -0.45159,-0.0163 -0.82135,-0.13163 -0.82168,-0.25634 -3.4e-4,-0.12471 -0.17151,-0.16116 -0.38039,-0.081 -0.20888,0.0802 -0.42252,0.0175 -0.47476,-0.1392 -0.0522,-0.15672 -0.47638,-0.29886 -0.94253,-0.31587 -0.46615,-0.017 -0.84782,-0.13296 -0.84816,-0.25767 -3.3e-4,-0.12471 -0.17919,-0.15821 -0.39747,-0.0744 -0.21829,0.0838 -0.39688,0.0242 -0.39688,-0.13229 0,-0.15652 -0.17478,-0.21751 -0.3884,-0.13554 -0.21362,0.082 -0.46379,0.0271 -0.55593,-0.12202 -0.0921,-0.14909 -0.33408,-0.20716 -0.53764,-0.12904 -0.20356,0.0781 -0.37011,0.014 -0.37011,-0.14256 0,-0.15653 -0.17478,-0.21752 -0.3884,-0.13555 -0.21363,0.082 -0.46379,0.0271 -0.55593,-0.12202 -0.0921,-0.14908 -0.33408,-0.20715 -0.53764,-0.12904 -0.20357,0.0781 -0.37012,0.014 -0.37012,-0.14256 0,-0.15652 -0.16408,-0.22162 -0.36463,-0.14466 -0.20055,0.077 -0.50193,0.003 -0.66973,-0.16518 -0.16781,-0.1678 -1.0492,-0.30733 -1.95866,-0.31005 -1.56071,-0.005 -1.70932,0.0508 -2.64638,0.98723 -0.54605,0.5457 -0.90656,0.99219 -0.80114,0.99219 0.10543,0 -0.0279,0.16053 -0.29618,0.35673 -0.30719,0.22463 -0.40877,0.48473 -0.27428,0.70234 0.15097,0.24428 0.11086,0.28211 -0.13683,0.12903 -0.25444,-0.15725 -0.30415,-0.096 -0.18147,0.2237 0.0929,0.24216 0.0466,0.44028 -0.10295,0.44028 -0.14954,0 -0.19831,0.11906 -0.10837,0.26458 0.0899,0.14552 0.0304,0.26459 -0.13229,0.26459 -0.1627,0 -0.22852,0.10889 -0.14626,0.24198 0.0823,0.13309 0.0446,0.28192 -0.0836,0.33073 -0.3169,0.12061 -1.9465,3.39499 -1.69215,3.40009 0.11124,0.002 0.0742,0.0915 -0.0824,0.19844 -0.4619,0.31543 -1.68678,2.25023 -1.55725,2.45981 0.0655,0.10597 -0.0664,0.26383 -0.29305,0.35081 -0.22667,0.087 -0.34573,0.26558 -0.26458,0.39688 0.0811,0.1313 -0.0474,0.31353 -0.28569,0.40497 -0.23827,0.0914 -0.36171,0.23775 -0.27431,0.32515 0.0874,0.0874 -0.10392,0.3783 -0.42515,0.64643 -0.32124,0.26814 -0.48813,0.49148 -0.37087,0.49632 0.11725,0.005 -0.12087,0.31607 -0.52917,0.69161 -0.4083,0.37554 -0.56376,0.59874 -0.34548,0.49599 0.21828,-0.10275 -0.0473,0.1921 -0.59028,0.65522 -0.54293,0.46312 -0.96545,0.92454 -0.93892,1.02537 0.0265,0.10082 -1.57522,1.79632 -3.55942,3.76777 -1.9842,1.97144 -3.54539,3.45972 -3.4693,3.30729 0.0761,-0.15244 -0.29058,0.16933 -0.81481,0.71503 -0.52423,0.54571 -1.04089,0.99219 -1.14814,0.99219 -0.10724,0 -0.716,0.47625 -1.35279,1.05833 -0.63679,0.58209 -1.26555,1.05834 -1.39725,1.05834 -0.1317,0 -0.30772,0.17791 -0.39116,0.39535 -0.0834,0.21745 -0.25015,0.33452 -0.37047,0.26016 -0.12031,-0.0744 -0.38641,0.10416 -0.59132,0.39671 -0.20491,0.29255 -0.43484,0.46963 -0.51096,0.39352 -0.0761,-0.0761 -0.50774,0.20663 -0.95917,0.62833 -0.45142,0.42169 -0.86582,0.72167 -0.92088,0.66661 -0.0551,-0.0551 -0.40036,0.16897 -0.76734,0.49783 -0.36697,0.32887 -0.83212,0.63425 -1.03366,0.67863 -0.20153,0.0444 -0.48592,0.22297 -0.63196,0.39688 -0.14605,0.1739 -0.44371,0.35249 -0.66146,0.39687 -0.21776,0.0444 -0.51498,0.23479 -0.6605,0.42313 -0.27753,0.35919 -0.32566,0.38395 -1.18159,0.60778 -0.29274,0.0766 -0.45566,0.26311 -0.36206,0.41457 0.0936,0.15146 0.0522,0.20246 -0.092,0.11332 -0.14422,-0.0891 -0.86916,0.23766 -1.61096,0.72619 -0.74181,0.48854 -1.41612,0.82089 -1.49846,0.73855 -0.0823,-0.0823 -0.1497,-0.004 -0.1497,0.17458 0,0.17837 -0.11907,0.25071 -0.26459,0.16078 -0.14552,-0.0899 -0.26458,-0.0304 -0.26458,0.13229 0,0.1627 -0.11906,0.22223 -0.26458,0.13229 -0.14552,-0.0899 -0.26459,-0.0304 -0.26459,0.13229 0,0.1627 -0.11906,0.22223 -0.26458,0.13229 -0.14552,-0.0899 -0.26458,-0.0304 -0.26458,0.1323 0,0.16269 -0.11907,0.22222 -0.26459,0.13229 -0.14552,-0.0899 -0.26458,-0.0304 -0.26458,0.13229 0,0.1627 -0.11906,0.22223 -0.26458,0.13229 -0.14552,-0.0899 -0.26459,-0.0374 -0.26459,0.11668 0,0.15411 -0.0893,0.25579 -0.19843,0.22596 -0.36037,-0.0985 -2.18282,0.61969 -2.18282,0.8602 0,0.12967 -0.16324,0.17312 -0.36276,0.0966 -0.19952,-0.0766 -0.54253,0.0406 -0.76225,0.26029 -0.21972,0.21972 -0.4732,0.32578 -0.56328,0.2357 -0.0901,-0.0901 -0.16379,-0.0286 -0.16379,0.13658 0,0.16521 -0.17859,0.23185 -0.39688,0.14809 -0.21828,-0.0838 -0.39687,-0.0205 -0.39687,0.14059 0,0.16109 -0.0893,0.26328 -0.19844,0.22709 -0.31933,-0.10589 -3.24114,0.94939 -3.24114,1.17062 0,0.11082 -0.1786,0.13296 -0.39688,0.0492 -0.21828,-0.0838 -0.39687,-0.0242 -0.39687,0.13229 0,0.15652 -0.1786,0.21605 -0.39688,0.13229 -0.21828,-0.0838 -0.39687,-0.0242 -0.39687,0.13229 0,0.15652 -0.1786,0.21605 -0.39688,0.13229 -0.21828,-0.0838 -0.39687,-0.0242 -0.39687,0.13229 0,0.15653 -0.1786,0.21606 -0.39688,0.1323 -0.21828,-0.0838 -0.39687,-0.0135 -0.39687,0.15621 0,0.16967 -0.10907,0.24109 -0.24238,0.1587 -0.13331,-0.0824 -0.5798,-0.0108 -0.99219,0.15911 -0.4124,0.1699 -0.89864,0.28459 -1.08054,0.25488 -0.1819,-0.0297 -0.33073,0.0665 -0.33073,0.21385 0,0.14733 -0.17859,0.19934 -0.39687,0.11558 -0.21828,-0.0838 -0.39688,-0.0316 -0.39688,0.11582 0,0.14747 -0.23812,0.20585 -0.52916,0.12974 -0.29104,-0.0761 -0.52917,-0.009 -0.52917,0.14876 0,0.15793 -0.16655,0.22323 -0.37011,0.14512 -0.20356,-0.0781 -0.44181,-0.026 -0.52943,0.11575 -0.0876,0.14178 -0.39733,0.19554 -0.68822,0.11947 -0.2909,-0.0761 -0.52891,-0.009 -0.52891,0.14883 0,0.15793 -0.16655,0.22323 -0.37011,0.14511 -0.20356,-0.0781 -0.4418,-0.026 -0.52943,0.11576 -0.0876,0.14178 -0.39732,0.19554 -0.68822,0.11947 -0.2909,-0.0761 -0.5289,-0.0165 -0.5289,0.13236 0,0.14887 -0.23813,0.2084 -0.52917,0.13229 -0.29104,-0.0761 -0.52917,-0.0166 -0.52917,0.13229 0,0.14887 -0.22468,0.21192 -0.4993,0.1401 -0.27462,-0.0718 -0.5724,-0.0123 -0.66172,0.13223 -0.0893,0.14453 -0.38699,0.20406 -0.661462,0.13229 -0.274474,-0.0718 -0.576628,-0.005 -0.671454,0.14846 -0.09637,0.15593 -0.517972,0.20986 -0.955902,0.12227 -0.52948,-0.10589 -0.783491,-0.0509 -0.783491,0.16964 0,0.21755 -0.224564,0.26998 -0.673626,0.15727 -0.370495,-0.093 -0.816437,-0.0808 -0.990983,0.0271 -0.414977,0.25647 -1.365005,0.30452 -7.926519,0.40088 -3.053402,0.0448 -5.490094,-0.0229 -5.490104,-0.15264 z M 96.64381,128.5958 c 0.329107,-0.41965 0.319749,-0.429 -0.0999,-0.0999 -0.440729,0.34565 -0.580887,0.56292 -0.363126,0.56292 0.05494,0 0.263301,-0.20836 0.463021,-0.46302 z"
         id="path2" /></g></g></svg>
